<?xml version="1.0" encoding="UTF-8"?>
<svg id="_레이어_1" data-name="레이어_1" xmlns="http://www.w3.org/2000/svg" version="1.1" viewBox="0 0 1024 1024">
  <!-- Generator: Adobe Illustrator 30.3.0, SVG Export Plug-In . SVG Version: 2.1.3 Build 182)  -->
  <defs>
    <style>
      .st0 {
        fill: #e1f2fc;
      }

      .st1 {
        fill: #fdc5be;
      }

      .st2 {
        fill: #fed791;
      }

      .st3 {
        fill: #66b3e0;
      }

      .st4 {
        fill: #fdc4be;
      }

      .st5 {
        fill: #3e260d;
      }

      .st6 {
        fill: #1a140a;
      }

      .st7 {
        fill: #6cbbe5;
      }

      .st8 {
        fill: #fbafad;
      }

      .st9 {
        fill: #67b4e1;
      }

      .st10 {
        fill: #19140b;
      }

      .st11 {
        fill: #4ea3d5;
      }

      .st12 {
        fill: #fbb0ac;
      }

      .st13 {
        fill: #fbb0ae;
      }

      .st14 {
        fill: #3c260d;
      }

      .st15 {
        fill: #3f260d;
      }

      .st16 {
        fill: #a6def6;
      }

      .st17 {
        fill: #79c1e8;
      }

      .st18 {
        fill: #fbb0ad;
      }

      .st19 {
        fill: #dceffa;
      }

      .st20 {
        fill: #fefefd;
      }

      .st21 {
        fill: #655346;
      }

      .st22 {
        fill: #fdc5bf;
      }

      .st23 {
        fill: #fed793;
      }

      .st24 {
        fill: #a6dff6;
      }

      .st25 {
        fill: #a7e1f8;
      }

      .st26 {
        fill: #fefdfd;
      }

      .st27 {
        fill: #19140a;
      }

      .st28 {
        fill: #d8eefa;
      }

      .st29 {
        fill: #fdfcfd;
      }

      .st30 {
        fill: #fefefe;
      }

      .st31 {
        fill: #fdfcfc;
      }

      .st32 {
        fill: #3d260d;
      }

      .st33 {
        fill: #1b130a;
      }

      .st34 {
        fill: #19130a;
      }

      .st35 {
        fill: #fdfdfd;
      }

      .st36 {
        fill: #a4def7;
      }
    </style>
  </defs>
  <path class="st32" d="M443,147c.57,10.37.72,39.34-2,48.5-1.07,3.61-5.48,8.96-9.5,8.5-10.03-1.16-2.71-31.5-9-39-7.77,4.46-13.65,4.53-21.5,6-14.38-12.48,19.03-16.93,20-20.5-2.45-8.06-7.18-15.04-12.5-21.5-38.27,33.73-109.73,13.15-95.5-45.5,3.83-15.78,26.49-31.62,41.5-35.5,61.58-15.93,85.8,49.5,88.5,99ZM369.5,59c-57.91,4.46-59.33,79.82,3,72,20.65-2.59,36.32-29.86,53-3-2.86-29.51-20.22-71.76-56-69Z"/>
  <path class="st14" d="M621,171c-7.68-1.48-13.63-1.53-20.5-7-7.85,1.3,3.73,51.43-15,38-6.66-4.78-6.9-43.62-6.5-53,2.08-48.42,26.98-118.22,88.5-101,32.87,9.2,54.79,42.14,36.5,74.5-17.48,30.92-65.23,27.03-89.5,6.5-5.89,6.02-9.63,13.73-12.5,21.5.91,2.57,35.13,10.32,19,20.5ZM643.5,59c-28.06,3.55-43.8,44.77-47,69,19.22-25.65,30.21-2.01,49,2,72.38,15.44,62.83-79.2-2-71Z"/>
  <path class="st21" d="M369.5,59c35.78-2.76,53.14,39.49,56,69-16.68-26.86-32.35.41-53,3-62.33,7.82-60.91-67.54-3-72Z"/>
  <path class="st21" d="M643.5,59c64.83-8.2,74.38,86.44,2,71-18.79-4.01-29.78-27.65-49-2,3.2-24.23,18.94-65.45,47-69Z"/>
  <path class="st15" d="M569,146c-8.03,12.26-20.77,6.05-31.5,6-14-.07-69.75,3.54-78,1-4.33-1.34-6.05-6.85-6.5-7-.1-6.4,6.95-6.44,11.5-7,13.28-1.62,90.09-2.2,100,1,1.98.64,4.02,5.69,4.5,6Z"/>
  <path class="st23" d="M569,146c2.92,1.86,6.74,2.1,10,3-.4,9.38-.16,48.22,6.5,53,18.73,13.43,7.15-36.7,15-38,6.87,5.47,12.82,5.52,20.5,7,4.46.86,9.15,3.4,15,2-.37,1.72.21,3.96,1,5.5,1.81,3.53,31.75,17.81,38.5,22.5,70.53,49.05,97.4,152.1,77.5,233-4.37-28.15-10.28-55.7-20-82.5-18.26-50.34-46.4-97.05-102.5-109.5-29.48-6.54-36.23,2.4-62,6-34.11,4.76-80.8,4.6-115,0-27.94-3.75-35.4-12.95-67-5-66.38,16.7-99.32,97.89-111.5,158.5-2.05,10.19-.9,23.11-6,31.5-22.93-95.61,13.9-192.92,97.5-244,4.99-3.05,20.53-5.95,19.5-15,5.08-.17,10.49-2.16,15-3,7.85-1.47,13.73-1.54,21.5-6,6.29,7.5-1.03,37.84,9,39,4.02.46,8.43-4.89,9.5-8.5,2.72-9.16,2.57-38.13,2-48.5,2.12,1.13,9.52-1.16,10-1,.45.15,2.17,5.66,6.5,7,8.25,2.54,64-1.07,78-1,10.73.05,23.47,6.26,31.5-6Z"/>
  <path class="st5" d="M386,174c1.03,9.05-14.51,11.95-19.5,15-83.6,51.08-120.43,148.39-97.5,244,25.74,107.31,130.19,131,228.5,132,103.92,1.06,226.67-13.76,255.5-131,19.9-80.9-6.97-183.95-77.5-233-6.75-4.69-36.69-18.97-38.5-22.5-.79-1.54-1.37-3.78-1-5.5,2.25-10.47,29.01,4.83,34.5,8,79.7,46.03,116.51,158.35,99,246,48.85-25.79,155.66-59.07,191.5-.5,34.84,56.94-6.64,128.12-50.5,166.5-37.34,32.67-84.11,52.28-131.5,65.5,45.91,21.3,121.6,75.41,84,134-26.83,41.81-92.41,21.52-129.5,5.5-2.59,17.36-1.96,35.12-4.5,52.5-.97,6.66-3.34,23.72-6,29-6.27,12.44-31.18,14.71-34,20-2.16,4.07-5.38,23.84-8,31-12.44,34.03-38.26,55.34-76.5,45.5-29.76-7.66-32.65-37.35-43-61h-102c-5.48,12.45-6.61,26.54-13.5,38.5-21.99,38.16-80.7,28.66-99-8-5.2-10.42-10.33-40.46-14-46-4.41-6.66-28.54-6.43-35-23-4.61-11.83-5.88-76.04-9.5-77.5-40.35,15.16-113.71,37.91-134.5-16.5-21.79-57.02,44.61-103.22,89-123-70.6-20.2-152.46-63.2-183-134-26.93-62.41-6.45-130.7,69.5-131.5,40.84-.43,87.49,13.47,123,33-15.03-85.89,15.15-188.29,89-239,6.22-4.27,42.86-28.47,44.5-14ZM75,432c-22.65,33.68-12.48,72.98,7,105.5,41.85,69.85,134.22,106.28,211.5,117.5,2.01-.5,3.6-5.8,4.5-7,14.7-19.7,28.01-40.37,43-60,3.31-4.33,6.68-8.67,10-13,4.34-5.66,9.59-10.85,14-16.5l-43-20.5c-16.65-14.5-32.12-25.81-44-45-7.33-11.85-16.4-42.63-22.5-49-14.79-15.45-81.05-32.91-103-35-29.58-2.82-59.2-4.2-77.5,23ZM744,493c-10.31,16.46-26.72,32.38-43,43-13.93,9.09-29.72,14.16-44,22.5-.16,1.19,13.17,15.13,15,17.5,3.03,3.92,5.93,8.05,9,12,15.03,19.34,28.41,39.46,43,59,.78,1.04,2.65,7.48,4.5,8,63.25-9.9,127.58-31.76,176-75,38.94-34.78,76.05-98.3,42.5-148-16.9-25.04-41.74-25.87-70.5-24-21.86,1.42-95.53,20.74-110,36-4.52,4.76-15.77,38.26-22.5,49ZM378.5,564c-2.7.46-34.08,39.79-34.5,42.5-.68,4.43,3.67,5.53,4,8,.38,2.86-13.9,32.88-16,39-6.65,19.37-11.81,39.2-17,59,58.1,14.78,118.64,19.38,178.5,23.5l15.5-58.5c-16.15,1.4-32.99,9.84-44-7-11.06-16.92-4.47-33.72,13-42l-99.5-64.5ZM643.5,565l-122.5,80.5c.11,2.3,1.58,2.56,3.5,2.5,2.13-.06,19.59-14.23,25-16,11.49-3.75,26.64-2.63,33.5,8.5,12.56,20.37-6.45,46.29-30,40-.64,1.04,21.47,10.15,10.5,17.5-8.78,5.88-23.17-12.28-30.5-15.5-.58,8.77,28.85,42.46,16.5,46.5-10.22,3.35-15.73-20.79-22-26,1.68,5.59-2.34,31.06,2,33,59.32-5.31,120.1-7.44,177.5-23.5-4.9-19.1-9.59-38.34-16-57-3.14-9.13-17.55-35.96-16-43,.23-1.04,4.02-2.76,4-5-.03-2.77-30.13-38.74-35.5-42.5ZM411.5,569l74,51c5.52,1.01,10.77-5.09,14.5-8.5-27.46-17.91-53.08-45.8-88.5-42.5ZM604.5,569c-6.18.19-12.67,1.92-19,1l-64.5,42.5c6.28,5.03,9.76,9.64,17.5,6.5,5.02-2.03,69.22-44.69,72-48,.51-.61,2.01-1.32,1-2-2.33.05-4.67-.07-7,0ZM503.5,581c-3.48.2-19.95.51-19.5,3.5.23,1.52,22.99,18.21,24.5,18.5,7.05,1.36,24.32-16.2,31.5-19.5.2-3.52-32.77-2.71-36.5-2.5ZM508.5,621c-.73.14-11.73,7.92-11.5,9.5,10.07,10.39,15.44,6.53,25-2-4.41-2.64-8.04-8.51-13.5-7.5ZM693.5,626l34,105c1.89-3.01,16.21-8.54,17-10,2.33-4.32-20.42-48.36-24.5-55.5-7.79-13.63-17.22-26.83-26.5-39.5ZM327.5,628c-21.06,27.57-36.84,58.74-50.5,90.5.24,3.93,15.24,9.8,18.5,12.5l32-103ZM480.5,643c-12.57,3.07-6.03,23.57,1,25,4.19.85,32.32-8.66,32.5-10.5-9.29-4.54-22.6-17.16-33.5-14.5ZM560.5,643c-3.91.14-26.06,13.53-25.5,15.5,9.34,3.88,34.79,16.63,38,0,1.49-7.73-4.39-15.78-12.5-15.5ZM170,783c22.78,40.13,85.22,10.67,119.5,3l1-11c-6.5.52-12.71-1-18.5-4-25.33-13.14-12.35-47.74-4-68,2.84-6.88,7.63-14.94,11-22,1.43-2.99,8.81-9.86,4.5-13-2.3-1.68-19.7-2.55-23-2-4.42.74-26.71,12.95-32,16-33.31,19.2-82.8,58.2-58.5,101ZM742,680c3.73,8.02,8.62,15.89,12,24,8.38,20.09,21.97,52.87-3,67-9.52,5.38-28.09,1.5-17.5,16,33.27,7.33,95.95,34.94,118.5-3,24.63-41.44-19.78-78.13-51.5-98-7.48-4.69-32.48-18.99-40-20-2.76-.37-20.32.99-22,2-4.49,2.7,2.33,9.48,3.5,12ZM513.5,706c-1.95,4.03-7.91,30.06-5,31,11.26,3.65,3.83-25.56,5-31ZM313.5,725c-8.62,2.35-10.05,84.32-9.5,95.5.52,10.45,2.72,36.55,5,46,2.59,10.73,16.91,15.22,26.5,18.5,69.16,23.66,294.53,25.7,361-3,3.52-1.52,13.88-6.32,15.5-9.5,1.64-3.22,5.62-39.88,6-46,2.09-33.38-.28-69.1-8.5-101.5-128.46,29.43-267.45,28.78-396,0ZM273.5,734c-9.95,15.08,3.08,27.07,18,29,6.79-22.95-1.23-19.55-18-29ZM748.5,734c-2.1,3.56-19.82,8.99-20.5,10.5-.6,1.33,2.08,19.04,3.5,19.5,14.44-5.77,26.86-12.83,17-30ZM673.5,902l-96.5,13.5c3.77,11.82,5.87,25.05,14,35,16.25,19.88,51.87,16.56,67-3,3.8-4.91,21.15-43.88,15.5-45.5ZM347.5,903c5.36,28.31,16.7,58.9,50,61,33.2,2.09,41.01-21.08,47.5-48.5l-97.5-12.5Z"/>
  <path class="st30" d="M753,434c-28.83,117.24-151.58,132.06-255.5,131-98.31-1-202.76-24.69-228.5-132,5.1-8.39,3.95-21.31,6-31.5,12.18-60.61,45.12-141.8,111.5-158.5,31.6-7.95,39.06,1.25,67,5,34.2,4.6,80.89,4.76,115,0,25.77-3.6,32.52-12.54,62-6,56.1,12.45,84.24,59.16,102.5,109.5,9.72,26.8,15.63,54.35,20,82.5ZM418.5,327c-22.73,2.69,17.28,35.98,29,33,20.24-5.14-23.02-33.71-29-33ZM600.5,327c-4.34.15-45.46,28.3-29,34,7.89,2.73,43.3-20.04,36.5-30.5-.86-1.32-6.16-3.55-7.5-3.5ZM620.5,379c-3.75,1.06-7.37,12.79-10,13-4.34.34-19.12-18.09-32.5-.5-23.91,31.42,25.55,59.83,36,22,.77-2.79-.04-12.49,1-15,1.59-3.86,22.44-11.67,5.5-19.5ZM400.5,380c-.45.03-4.26,2.79-4.5,3.5-3.22,9.5,12.2,13.89,13,17,.11.45-2.14,8.04-2,9,5.43,36.38,52.08,24.21,41-12-3.66-11.97-12.42-15.85-24.5-13.5-4.35.85-11.28,7.99-12,8-2.95.03-6.26-12.31-11-12ZM659,406c-28.83,6.9-42.82,38.93-32,66,1.83,4.58,3.05,5.51,6,9,5.71,6.74,10.99,11.01,20,13,.28.12.7-.11,1,0,8.31,3.1,20.23,1.54,29,2,.33.02.67,0,1,0,25.11-.39,36.24-37.09,31-58-1.37-5.45-2.31-5.79-5-10-3.2-5-6.37-8.36-11-12-3.99-3.14-5.58-3.84-10-6-7.79-3.81-6.71-4.24-16-5-4.8-.39-9.28-.13-14,1ZM343,406c-29.68,5.9-44.85,38.55-34,66,1.84,4.64,3.83,6.49,7,10,5.13,5.68,8.47,8.5,16,11,2.86.95,6.01,1.55,9,2,8.66,1.29,17.28,1.08,26,1,1.34.02,5.36-1.44,7-2,21.68-7.38,27.4-34.15,24-54-.64-3.76-1.05-6.6-3-10-2.98-5.2-10.15-10.46-15-14-3.08-2.24-4.55-3.25-8-5-6.79-3.45-6.99-5.24-16-6-4.56-.39-8.53.11-13,1ZM504.5,418c-5.53,1.64-5.79,8.95-1,13,10.82,9.15,25.45-6.43,15-12-2.12-1.13-11.95-1.61-14-1ZM497.5,450c-14.85.92-2.71,26.84,21,20,6.01-1.73,15.18-9.57,11.5-16.5-5.21-9.81-14.36,3.79-19.5,3.5-3.93-.22-8.57-7.27-13-7Z"/>
  <path class="st33" d="M418.5,327c5.98-.71,49.24,27.86,29,33-11.72,2.98-51.73-30.31-29-33Z"/>
  <path class="st6" d="M600.5,327c1.34-.05,6.64,2.18,7.5,3.5,6.8,10.46-28.61,33.23-36.5,30.5-16.46-5.7,24.66-33.85,29-34Z"/>
  <path class="st34" d="M620.5,379c16.94,7.83-3.91,15.64-5.5,19.5-1.04,2.51-.23,12.21-1,15-10.45,37.83-59.91,9.42-36-22,13.38-17.59,28.16.84,32.5.5,2.63-.21,6.25-11.94,10-13Z"/>
  <path class="st34" d="M400.5,380c4.74-.31,8.05,12.03,11,12,.72,0,7.65-7.15,12-8,12.08-2.35,20.84,1.53,24.5,13.5,11.08,36.21-35.57,48.38-41,12-.14-.96,2.11-8.55,2-9-.8-3.11-16.22-7.5-13-17,.24-.71,4.05-3.47,4.5-3.5Z"/>
  <path class="st22" d="M673,405l-40,76c-2.95-3.49-4.17-4.42-6-9l32-66c4.72-1.13,9.2-1.39,14-1Z"/>
  <path class="st22" d="M356,405l-40,77c-3.17-3.51-5.16-5.36-7-10l34-66c4.47-.89,8.44-1.39,13-1Z"/>
  <path class="st12" d="M372,411l-40,82c-7.53-2.5-10.87-5.32-16-11l40-77c9.01.76,9.21,2.55,16,6Z"/>
  <path class="st18" d="M689,410l-41,80.5c2.53-.14,4.72,3.38,5,3.5-9.01-1.99-14.29-6.26-20-13l40-76c9.29.76,8.21,1.19,16,5Z"/>
  <path class="st8" d="M343,406l-34,66c-10.85-27.45,4.32-60.1,34-66Z"/>
  <path class="st8" d="M659,406l-32,66c-10.82-27.07,3.17-59.1,32-66Z"/>
  <path class="st0" d="M278,493c-12.23-6.36-21.89-16.76-33.5-24-9.4-5.87-46.09-29.35-43.5-5.5,50.64,35.03,92.1,81.3,135,125l5-.5c-14.99,19.63-28.3,40.3-43,60-11.84-9.97-30.72-12.16-45.5-18-69.53-27.46-140.6-79.07-165.5-152.5-5.02-14.81-6.23-31.57-12-45.5,18.3-27.2,47.92-25.82,77.5-23,21.95,2.09,88.21,19.55,103,35,6.1,6.37,15.17,37.15,22.5,49Z"/>
  <path class="st0" d="M947,432c-5.1,15.95-7.26,32.7-13,48.5-25.69,70.71-92.15,119.72-159.5,147.5-16.57,6.84-35.07,9.96-50.5,19-14.59-19.54-27.97-39.66-43-59l3.5,2c43.44-44.55,86.5-90.14,136.5-127.5-.03-3.06.84-8.2-2.5-9.5-15.01-5.84-60.95,31.89-74.5,40,6.73-10.74,17.98-44.24,22.5-49,14.47-15.26,88.14-34.58,110-36,28.76-1.87,53.6-1.04,70.5,24Z"/>
  <path class="st1" d="M699,416c-13.47,20.36-24.74,43.49-36,65.5-2.79,5.45-.96,11.3-9,12.5-.3-.11-.72.12-1,0-.28-.12-2.47-3.64-5-3.5l41-80.5c4.42,2.16,6.01,2.86,10,6Z"/>
  <path class="st1" d="M380,416l-39,79c-2.99-.45-6.14-1.05-9-2l40-82c3.45,1.75,4.92,2.76,8,5Z"/>
  <path class="st18" d="M395,430c-1.79.86-2.62-2.29-4-1.5-1.48.84-11.6,26.44-14,31-5.96,11.33-15.42,21.68-18,35,1.98-.14,6.97,1.49,8,1.5-8.72.08-17.34.29-26-1l39-79c4.85,3.54,12.02,8.8,15,14Z"/>
  <path class="st12" d="M710,428l-34,64.5.5,2.5c2.06-.98,5.64.93,6.5,1-8.77-.46-20.69,1.1-29-2,8.04-1.2,6.21-7.05,9-12.5,11.26-22.01,22.53-45.14,36-65.5,4.63,3.64,7.8,7,11,12Z"/>
  <path class="st10" d="M504.5,418c2.05-.61,11.88-.13,14,1,10.45,5.57-4.18,21.15-15,12-4.79-4.05-4.53-11.36,1-13Z"/>
  <path class="st1" d="M395,430c1.95,3.4,2.36,6.24,3,10-5.76,2.68-6.42,11.53-9,16.5-4.02,7.74-10.56,15.01-14,23-1.5,3.49-6.52,13.41-1,14.5-1.64.56-5.66,2.02-7,2-1.03-.01-6.02-1.64-8-1.5,2.58-13.32,12.04-23.67,18-35,2.4-4.56,12.52-30.16,14-31,1.38-.79,2.21,2.36,4,1.5Z"/>
  <path class="st4" d="M710,428c2.69,4.21,3.63,4.55,5,10l-31,58c-.33,0-.67.02-1,0-.86-.07-4.44-1.98-6.5-1l-.5-2.5,34-64.5Z"/>
  <path class="st16" d="M298,648c-.9,1.2-2.49,6.5-4.5,7-77.28-11.22-169.65-47.65-211.5-117.5-19.48-32.52-29.65-71.82-7-105.5,5.77,13.93,6.98,30.69,12,45.5,24.9,73.43,95.97,125.04,165.5,152.5,14.78,5.84,33.66,8.03,45.5,18Z"/>
  <path class="st24" d="M724,647c15.43-9.04,33.93-12.16,50.5-19,67.35-27.78,133.81-76.79,159.5-147.5,5.74-15.8,7.9-32.55,13-48.5,33.55,49.7-3.56,113.22-42.5,148-48.42,43.24-112.75,65.1-176,75-1.85-.52-3.72-6.96-4.5-8Z"/>
  <path class="st13" d="M684,496l31-58c5.24,20.91-5.89,57.61-31,58Z"/>
  <path class="st13" d="M398,440c3.4,19.85-2.32,46.62-24,54-5.52-1.09-.5-11.01,1-14.5,3.44-7.99,9.98-15.26,14-23,2.58-4.97,3.24-13.82,9-16.5Z"/>
  <path class="st27" d="M497.5,450c4.43-.27,9.07,6.78,13,7,5.14.29,14.29-13.31,19.5-3.5,3.68,6.93-5.49,14.77-11.5,16.5-23.71,6.84-35.85-19.08-21-20Z"/>
  <path class="st24" d="M278,493c11.88,19.19,27.35,30.5,44,45l29,37c-3.32,4.33-6.69,8.67-10,13l-5,.5c-42.9-43.7-84.36-89.97-135-125-2.59-23.85,34.1-.37,43.5,5.5,11.61,7.24,21.27,17.64,33.5,24Z"/>
  <path class="st24" d="M681,588c-3.07-3.95-5.97-8.08-9-12,3.89-15.47,21.96-25.25,29-40,16.28-10.62,32.69-26.54,43-43,13.55-8.11,59.49-45.84,74.5-40,3.34,1.3,2.47,6.44,2.5,9.5-50,37.36-93.06,82.95-136.5,127.5l-3.5-2Z"/>
  <path class="st19" d="M701,536c-7.04,14.75-25.11,24.53-29,40-1.83-2.37-15.16-16.31-15-17.5,14.28-8.34,30.07-13.41,44-22.5Z"/>
  <path class="st28" d="M351,575l-29-37,43,20.5c-4.41,5.65-9.66,10.84-14,16.5Z"/>
  <path class="st17" d="M378.5,564l99.5,64.5c-17.47,8.28-24.06,25.08-13,42,11.01,16.84,27.85,8.4,44,7l-15.5,58.5c-59.86-4.12-120.4-8.72-178.5-23.5,5.19-19.8,10.35-39.63,17-59,2.1-6.12,16.38-36.14,16-39-.33-2.47-4.68-3.57-4-8,.42-2.71,31.8-42.04,34.5-42.5Z"/>
  <path class="st17" d="M643.5,565c5.37,3.76,35.47,39.73,35.5,42.5.02,2.24-3.77,3.96-4,5-1.55,7.04,12.86,33.87,16,43,6.41,18.66,11.1,37.9,16,57-57.4,16.06-118.18,18.19-177.5,23.5-4.34-1.94-.32-27.41-2-33,6.27,5.21,11.78,29.35,22,26,12.35-4.04-17.08-37.73-16.5-46.5,7.33,3.22,21.72,21.38,30.5,15.5,10.97-7.35-11.14-16.46-10.5-17.5,23.55,6.29,42.56-19.63,30-40-6.86-11.13-22.01-12.25-33.5-8.5-5.41,1.77-22.87,15.94-25,16-1.92.06-3.39-.2-3.5-2.5l122.5-80.5Z"/>
  <path class="st29" d="M411.5,569c35.42-3.3,61.04,24.59,88.5,42.5-3.73,3.41-8.98,9.51-14.5,8.5l-74-51Z"/>
  <path class="st35" d="M604.5,569c2.33-.07,4.67.05,7,0,1.01.68-.49,1.39-1,2-2.78,3.31-66.98,45.97-72,48-7.74,3.14-11.22-1.47-17.5-6.5l64.5-42.5c6.33.92,12.82-.81,19-1Z"/>
  <path class="st11" d="M503.5,581c3.73-.21,36.7-1.02,36.5,2.5-7.18,3.3-24.45,20.86-31.5,19.5-1.51-.29-24.27-16.98-24.5-18.5-.45-2.99,16.02-3.3,19.5-3.5Z"/>
  <path class="st31" d="M508.5,621c5.46-1.01,9.09,4.86,13.5,7.5-9.56,8.53-14.93,12.39-25,2-.23-1.58,10.77-9.36,11.5-9.5Z"/>
  <path class="st9" d="M693.5,626c9.28,12.67,18.71,25.87,26.5,39.5,4.08,7.14,26.83,51.18,24.5,55.5-.79,1.46-15.11,6.99-17,10l-34-105Z"/>
  <path class="st3" d="M327.5,628l-32,103c-3.26-2.7-18.26-8.57-18.5-12.5,13.66-31.76,29.44-62.93,50.5-90.5Z"/>
  <path class="st35" d="M480.5,643c10.9-2.66,24.21,9.96,33.5,14.5-.18,1.84-28.31,11.35-32.5,10.5-7.03-1.43-13.57-21.93-1-25Z"/>
  <path class="st20" d="M560.5,643c8.11-.28,13.99,7.77,12.5,15.5-3.21,16.63-28.66,3.88-38,0-.56-1.97,21.59-15.36,25.5-15.5Z"/>
  <path class="st0" d="M279,681c-12.95-.92-30.24,14.58-11,22-8.35,20.26-21.33,54.86,4,68-24.36,9.78-54.9,17.1-81.5,15-6.09-.48-15.39-5.91-20.5-3-24.3-42.8,25.19-81.8,58.5-101,5.29-3.05,27.58-15.26,32-16,3.3-.55,20.7.32,23,2,4.31,3.14-3.07,10.01-4.5,13Z"/>
  <path class="st0" d="M852,784l-51.5,1c-16.51-4.31-34.52-5.76-49.5-14,24.97-14.13,11.38-46.91,3-67,20.59-8.92,2.08-23.77-12-24-1.17-2.52-7.99-9.3-3.5-12,1.68-1.01,19.24-2.37,22-2,7.52,1.01,32.52,15.31,40,20,31.72,19.87,76.13,56.56,51.5,98Z"/>
  <path class="st25" d="M754,704c-3.38-8.11-8.27-15.98-12-24,14.08.23,32.59,15.08,12,24Z"/>
  <path class="st36" d="M279,681c-3.37,7.06-8.16,15.12-11,22-19.24-7.42-1.95-22.92,11-22Z"/>
  <path class="st7" d="M513.5,706c-1.17,5.44,6.26,34.65-5,31-2.91-.94,3.05-26.97,5-31Z"/>
  <path class="st2" d="M313.5,725c128.55,28.78,267.54,29.43,396,0,8.22,32.4,10.59,68.12,8.5,101.5-.38,6.12-4.36,42.78-6,46-1.62,3.18-11.98,7.98-15.5,9.5-66.47,28.7-291.84,26.66-361,3-9.59-3.28-23.91-7.77-26.5-18.5-2.28-9.45-4.48-35.55-5-46-.55-11.18.88-93.15,9.5-95.5Z"/>
  <path class="st26" d="M273.5,734c16.77,9.45,24.79,6.05,18,29-14.92-1.93-27.95-13.92-18-29Z"/>
  <path class="st35" d="M748.5,734c9.86,17.17-2.56,24.23-17,30-1.42-.46-4.1-18.17-3.5-19.5.68-1.51,18.4-6.94,20.5-10.5Z"/>
  <path class="st16" d="M170,783c5.11-2.91,14.41,2.52,20.5,3,26.6,2.1,57.14-5.22,81.5-15,5.79,3,12,4.52,18.5,4l-1,11c-34.28,7.67-96.72,37.13-119.5-3Z"/>
  <path class="st16" d="M751,771c14.98,8.24,32.99,9.69,49.5,14l51.5-1c-22.55,37.94-85.23,10.33-118.5,3-10.59-14.5,7.98-10.62,17.5-16Z"/>
  <path class="st30" d="M673.5,902c5.65,1.62-11.7,40.59-15.5,45.5-15.13,19.56-50.75,22.88-67,3-8.13-9.95-10.23-23.18-14-35l96.5-13.5Z"/>
  <path class="st30" d="M347.5,903l97.5,12.5c-6.49,27.42-14.3,50.59-47.5,48.5-33.3-2.1-44.64-32.69-50-61Z"/>
</svg>