<?xml version="1.0" encoding="UTF-8"?>
<svg id="_레이어_1" data-name="레이어_1" xmlns="http://www.w3.org/2000/svg" version="1.1" viewBox="0 0 1024 1024">
  <!-- Generator: Adobe Illustrator 30.3.0, SVG Export Plug-In . SVG Version: 2.1.3 Build 182)  -->
  <defs>
    <style>
      .st0 {
        fill: #3c3836;
      }

      .st1 {
        fill: #fee69d;
      }

      .st2 {
        fill: #fbddd1;
      }

      .st3 {
        fill: #3e3a37;
      }

      .st4 {
        fill: #fe999f;
      }

      .st5 {
        fill: #fcfcfc;
      }

      .st6 {
        fill: #fee69a;
      }

      .st7 {
        fill: #f9ddd1;
      }

      .st8 {
        fill: #fbd45b;
      }

      .st9 {
        fill: #feeaa1;
      }

      .st10 {
        fill: #fffcfd;
      }

      .st11 {
        fill: #fdf9ed;
      }

      .st12 {
        fill: #fde596;
      }

      .st13 {
        fill: #fee799;
      }

      .st14 {
        fill: #78d7eb;
      }

      .st15 {
        fill: #3d3633;
      }

      .st16 {
        fill: #3c3936;
      }

      .st17 {
        fill: #7f8183;
      }

      .st18 {
        fill: #4d4c4c;
      }

      .st19 {
        fill: #feddcf;
      }

      .st20 {
        fill: #fee69c;
      }

      .st21 {
        fill: #a74235;
      }

      .st22 {
        fill: #c0ebf4;
      }

      .st23 {
        fill: #4e4c4d;
      }

      .st24 {
        fill: #fed65f;
      }

      .st25 {
        fill: #fee69b;
      }

      .st26 {
        fill: #a94a36;
      }

      .st27 {
        fill: #fcfeff;
      }

      .st28 {
        fill: #7c7d7f;
      }

      .st29 {
        fill: #371f07;
      }

      .st30 {
        fill: #fed65e;
      }

      .st31 {
        fill: #3f3a37;
      }

      .st32 {
        fill: #fefdfd;
      }

      .st33 {
        fill: #fbf8f5;
      }

      .st34 {
        fill: #7c7c7e;
      }

      .st35 {
        fill: #ab4d37;
      }

      .st36 {
        fill: #fdfdfe;
      }

      .st37 {
        fill: #c0ebf5;
      }

      .st38 {
        fill: #7f8082;
      }

      .st39 {
        fill: #fbfaf7;
      }

      .st40 {
        fill: #77d8eb;
      }

      .st41 {
        fill: #4d4c4d;
      }

      .st42 {
        fill: #4e4d4d;
      }

      .st43 {
        fill: #fdd55e;
      }

      .st44 {
        fill: #7bd8ec;
      }

      .st45 {
        fill: #7ad8ec;
      }

      .st46 {
        fill: #3f3734;
      }

      .st47 {
        fill: #fcfaf9;
      }

      .st48 {
        fill: #feeaa0;
      }

      .st49 {
        fill: #fefefe;
      }

      .st50 {
        fill: #fceaa7;
      }

      .st51 {
        fill: #fcd559;
      }

      .st52 {
        fill: #95999b;
      }

      .st53 {
        fill: #fdfcfc;
      }

      .st54 {
        fill: #c65f43;
      }

      .st55 {
        fill: #fcfdfe;
      }

      .st56 {
        fill: #361f07;
      }

      .st57 {
        fill: #fcfdfd;
      }

      .st58 {
        fill: #fcdd75;
      }

      .st59 {
        fill: #fdfdfd;
      }

      .st60 {
        fill: #fffdfd;
      }

      .st61 {
        fill: #c0eaf4;
      }

      .st62 {
        fill: #fcdbcb;
      }
    </style>
  </defs>
  <path class="st29" d="M740,474c-.33,2.02-3.48,5.07-.5,7,2.15-.57,5.15-6.72,5.5-7,46.62-36.82,149.01-45.8,191,3.5,58.91,69.17,16.47,170.62-59,206,78.5,52.2,79.91,160.05-25.5,178.5-3.53.62-10.11-.87-13,0-1.86.56-19.5,24.12-26,29-33.62,25.24-86.66,18.08-122,0-4.12-2.11-22.56-15.87-24-16-3.41-.3-11.26,9.73-15,11-3.94,1.33-17.92.56-22,3-2.49,1.49-11.54,34.07-14.5,40.5-20.53,44.61-75.51,75.16-87,6-.78-4.71-1.22-32.49-3.5-33.5l-29.5,1.5c1.58,35.78-9.11,94.5-57.5,64.5-13.66-8.47-26.16-27-32.5-41.5-2.95-6.76-9.79-34.61-13.5-36.5-6.04-3.08-17.23-1.67-26-7-1.85-1.12-8.16-8.91-9-9-1.34-.14-16.92,12.32-20,14-52.08,28.51-119.74,30.56-153-26-111.29.73-124.32-125.95-39.5-178.5-60.76-32.76-101.84-96.56-80-167,29.7-95.81,146.6-83.77,216-42-16.81-98.94,32.16-189.92,113.5-243.5,6.69-4.4,12.76-2.57,14.5-12.5,3.72-21.19-1.31-55.17-12-74-1.84-3.25-20.81-26.93-22.5-27.5-2.53-.85-13.02,6.39-17,7-66.66,10.14-57.57-96.87,7-77,20.8,6.4,56.33,68.42,63.5,89.5,8.6,25.28,10.33,48.78,10.5,75.5,47.27-13.31,98.65-13.09,146,0,.72-38.38,7.15-76.89,26.5-110.5,3.49-6.06,34.82-47.03,38.5-49.5,63.56-42.69,93.23,84.22,16,72-3.66-.58-14.02-7.34-16-7-2.8.47-22.35,26.38-24.5,30.5-12.27,23.51-11.82,49.98-10,76,77.41,38.11,136.26,134.01,131,221-.57,9.4-3.47,20.08-5,29.5ZM324,76c-1.04,3.33-1.45,9.56-1,13,2.04,15.71,19.58,25.61,34.5,21,7.04-2.17,9.18-11.52,17-10,9.42,1.83,38.09,46.01,41.5,56.5,6.84,21.02,5,40.68,5.5,60.5,6.21-29.91-.44-57.53-11.5-85-9.45-23.48-21.55-39.99-36-59-14.06-18.49-42.83-19.93-50,3ZM649,72c-7.65,10.39-17.91,21.39-25,32.5-5.78,9.07-10.98,21.12-14,31.5-9.14,18.7-13.56,50.82-13,71.5.11,4.2-.86,6.31,2.5,9.5-.37-33.15,1.86-61.93,21.5-89.5,2.3-3.23,23.68-27.04,25.5-27.5,6.47-1.65,10.04,6.71,15,9,15.99,7.4,33.84-3.1,36.5-20,.96-6.1,1.07-7.05-1-13-7.83-22.47-34.55-22.26-48-4ZM299,382c-8.13,26.25-9.34,53.93-5,81,2.2,13.74,7.53,26.9,11,41.5l3,1c-.34-8.46-2.13-17.02-2-25.5,1.17-76.01,47.17-179.23,134.5-183,29.76-1.29,57.42,21.52,79,17,23.2-4.86,32.29-18.74,63-17,86.29,4.9,131.21,106.6,132.5,182,.16,9.39-1.8,18.45,0,25.5,5.26-13.1,9.63-26.51,12-40.5,5.3-31.35,3.4-53.54-5-84-16.2-58.74-45.67-92.45-92-129-3.33-2.62-7.57-4.41-10-7.5-.35-.45.72-5.01-2.5-7.5-2.73-2.12-12.33-1.85-15.5,0-30.16-15.54-67.69-20.11-101.5-19-100.54,3.29-174.67,70.72-201.5,165ZM333,537c51.62,112.91,316.64,110.61,360-9,27.61-76.17-15.11-207.05-107.5-215-33.82-2.91-56.63,22.32-86,16-24.15-5.2-33.71-18.46-63-16-96.17,8.09-138.94,146.49-103.5,224ZM74,530c-.92,4.22-1.55,8.69-2,13-11.69,112.38,128.57,165.9,220.5,164,3.59-.91,14.98-17.18,18.5-21,22.12-24.02,43.64-47.46,72-64.5l-9-13.5c2.47,1.97,25.49,15.05,25,8.5-.12-1.68-26.37-13.26-30-15.5-30.3-18.67-53.22-43.8-70-75-6.92-12.86-9.25-28.33-20.5-37-60.69-46.79-184-53.49-204.5,41ZM757,482c-5.55-1.32-19.3,7.79-22,11.5-.87,1.19-.8,4.16-1,4.5-5.02,8.88-8.54,19.73-13,29-6.25,6.46-11.19,19.07-17,26.5-14.34,18.35-31.27,33.97-51,46.5-8.39,5.33-21.38,9.49-30,15.5-3.24,9.1,22.56-6.41,24-7.5l-9,13.5c28.53,16.83,50.72,40.45,73,64.5,4.18,4.51,12.65,19.54,18.5,21,91.95,1.39,228.7-50.46,220.5-162-.39-5.31-1.84-10.8-3-16-20.04-89.64-125.96-86.13-190-47ZM505,716c3.75,4.55,19.95,23.87,24.5,25,7.54,1.88,22.57-1.39,31,0,.63-2.97-4.74-5.15-6.5-7-29.14-30.61-65.68-66.33-97.5-94-6.49-5.65-10.03-10.39-17.5-13-4.96-1.73-13.58-2.67-19-4-2.04-.5-7.48-4.18-9.5-3l94.5,96ZM600,623c-5.35,1.3-10.81,2.07-16,4-10.9,4.06-12.46,7.18-21.5,15-14.99,12.97-28.59,28.35-43.5,41.5-.63,1.5,1.92,2.36,2,2.5,1.68,2.88,6.19,7.16,9,9,.77.51,2.44,3.36,4.5,3,5.39-.94,67.55-69.56,76-78-3.79-1.03-7.49,2.27-10.5,3ZM404.5,627c-20.76,30.41-35.04,65.66-41,102,1.52,1.61,41.82,5.36,44,5,6.97-1.16,10.58-7.58,24-5,3.96.76,8.47,5.89,9,6,12.61,2.65,41.38,4.46,55,5,3.04.12,22.78.43,23.5-.5l-114.5-112.5ZM615.5,627l-76.5,76.5,36.5,35.5-15.5-26.5,27-11c-29.99-21.78,20.78-49.67,21.5-11.5,6.09-11.74,31.31-3.53,26.5,6.5-3.56,7.42-12.6-17.02-21-2,22.89,6.26,14.27,38.26-7.5,33.5-1.55-.34-6.57-5.03-7-5-1.06.06-13.45,12.87-15,15l74.5-10.5c-8.04-29.49-17.53-63.06-34-89-1.34-2.1-7.06-11.8-9.5-11.5ZM475,642c11.27,11.24,22.48,22.53,34.5,33,3.41.64,32.04-28.59,36.5-33,3.7-3.67,8.24-6.89,11.5-11h-94c2.24,5.15,7.81,7.33,11.5,11ZM645,652c11.77,26.2,18.5,48.31,24,76.5.14.7,3.89,3.33,4,4,2.05,12.09-1.5,29.23-1,41.5.3,7.39,2.84,14.94,2,22.5,3.53,5.23,66.13-33.78,68-41.5,1.48-6.1-9.17-20.73-13-26.5-15.17-22.87-62.48-77.77-85.5-90.5-1.45-.8-6.1-3.73-7.5-1.5,2.41,5.29,6.66,10.29,9,15.5ZM280,755c3.67,9.07,63.5,45.96,67,41.5.22-7.6,2.11-15.94,2-23.5-.03-2.27-3.01-4.72-3-5.5.06-8.06.4-28.01,2-35,.28-1.21,3.73-1.79,4-3,5.98-26.8,12.59-52.35,24-77.5,4.03-4.37,5.15-10.09,9-14.5-.03-2.83-3.21-1.04-4.5-.5-20.83,8.63-72.81,69.25-86.5,89.5-4.11,6.08-16.42,22.52-14,28.5ZM590,678c-7.73,2.74-9.3,13.78-1.5,17,8.95,3.69,15.9-4.6,13.5-13-1.46-5.12-7.92-5.45-12-4ZM116,821c.71.9,1.4,1.32,2,2,13.85,15.79,38.15,27.72,59,24.5-2.59-5.68-4.63-11.39-6-17.5-11.74-52.34,12.48-88.48,55-116.5-16.07-3.76-31.38-9.47-47-14.5-11.85-3.82-15.1-9.5-27.5-4-43.22,19.16-66.5,86.56-35.5,126ZM844,700c-7.43-1.29-39.07,12.77-49,13.5,42.92,26.5,66.98,64.81,56,116.5-.58,2.73-6.94,17.35-6,18.5,22.43.5,43.26-8.89,58-25.5.61-.69,1.29-1.11,2-2,29.83-37.55,13.21-89.2-21.5-117-14.07-11.27-23.5-16.39-39.5-4ZM616,720c11.68-6.44,4.22-19.57-7-20-17.99-.69-8,28.27,7,20ZM588,725c6.4-6.25,6.63-6.54,5-16l-1.5-2-22.5,8.5,11.5,15.5c2.36-2.17,5.2-3.76,7.5-6ZM187,837c20.3,55.28,64.23,68.22,118.5,51,7.99-2.53,43.34-20.2,45.5-27.5,1.22-4.14-1.61-13.01-2-17.5-.29-3.37-.6-20.25-2.5-21-26.46,16.83-70.08,10.88-72.5-26.5-.45-6.89,3.92-22.41,3-26-.34-1.32-7.32-6.3-8-8-6.97-17.3,17.15-38.32,15-42-6.53.39-13.48.02-20-.5-22.85-1.83-28.23.97-46.5,16-33.09,27.21-45.52,61.09-30.5,102ZM757,719c-6.63.55-13.57-1.3-20,1.5,6.39,11.97,21.31,25.06,16,40-1.21,3.4-8.66,8.54-9,10-.61,2.6,3.85,20.31,3,28-3.78,34.06-47.17,40.55-71.5,23.5-1.78.57-3.31,18.93-3.5,22-.28,4.41-2.19,13.72-1,17.5,3.01,9.56,48.95,28.36,59.5,30.5,48.53,9.84,87.18-6.09,104.5-54,17.05-47.16-6.19-93.59-49.5-116-14.16-7.33-13.66-4.23-28.5-3ZM422.5,738c-31.64,1.06-35.46,87.54-32,110l27.5-.5c-1.53-25.49-8.32-62.74,0-87,1.61-4.71,13.8-18.97,11.5-21.5-2.53-.44-4.3-1.09-7-1ZM358.5,739c-1.32.59-2.94,20.51-2.5,21.5.79,1.79,29.7,6.59,32,5,.99-.69,5.91-19.73,10-22l-39.5-4.5ZM654.5,739c-22.2.96-49.41,8.19-72,10-43.03,3.44-87.06.92-130-3-2.55-.23-15.44-6.44-13.5.5l30.5,27.5c51.56,1.17,103.89,2.82,155-5,4.46-.68,36.43-6.85,38-8,2.96-2.17-.89-17.51.5-21.5-.62-.87-6.91-.57-8.5-.5ZM432.5,755c-1.74.39-7.61,12.63-7.5,14.5.33,5.58,29.84,47.52,33.5,47.5l18.5-14.5c-5.19-8.26-35.3-49.56-44.5-47.5ZM362,853c2.1,11.55.79,18.53,15.5,23,39.63,12.05,122.17,16.22,164,14,20.7-1.1,89.84-9,107-16,11.1-4.53,10.11-15.07,11.5-24,3.97-25.53,3.68-51.79,2-77.5-60.8,10.99-123.27,14.45-185.5,11.5,1.04,6.94,13.6,17.12,11.5,23.5-.61,1.86-29.43,21.29-32.5,20.5-4.95-1.27-26.14-32.52-31-38-4.68,14.01,6.59,55.96,2.5,66.5-2.18,5.61-37.2-.89-44.5.5-3.81-1.53-2.78-34.37-2.5-40.5.6-12.96,2.91-26.21,5-39l-24.5-5.5c-4.21,25.93-3.21,55.1,1.5,81ZM305,817c11.75,2.83,26.61.2,36-7.5.23-2.14-20.16-9.91-23-11.5-10.19-5.73-19.48-13.35-30-18.5-3.7,15.06.28,33.48,17,37.5ZM703,798c-2.93,1.62-23.2,9.66-23,11.5,8.4,6.64,23.61,9.98,34,8.5,16.45-2.34,24.15-22.77,20-37.5l-2-1c-9.2,6.84-18.97,12.97-29,18.5ZM539,918c1.42,27.54,8.75,62.68,42.5,37,15.04-11.44,27.63-37.76,31.5-56,.23-1.1,2.66-5.4,2-6.5l-75.5,9.5c-2.36,1.39-.64,13.27-.5,16ZM408,900c3.15,16.33,19.85,46.19,33.5,56,33.32,23.94,39.57-11.75,40.5-38,.09-2.43,2.5-14.58.5-16l-75.5-8.5c-.47,2.39.58,4.3,1,6.5Z"/>
  <path class="st28" d="M374,73c-15.48-11.33-35.41-9-50,3,7.17-22.93,35.94-21.49,50-3Z"/>
  <path class="st34" d="M697,76c-12.9-12.27-33.12-13.49-48-4,13.45-18.26,40.17-18.47,48,4Z"/>
  <path class="st23" d="M374,73c14.45,19.01,26.55,35.52,36,59l-37.5-43c-15.92,11.79-33.67,11.77-49.5,0-.45-3.44-.04-9.67,1-13,14.59-12,34.52-14.33,50-3Z"/>
  <path class="st41" d="M697,76c2.07,5.95,1.96,6.9,1,13-8.25,7.98-22.51,10.5-33.5,8-4.04-.92-13.19-7.99-14-8-2.55-.02-15.99,12.78-18.5,15.5-5.82,6.32-18.33,23.99-22,31.5,3.02-10.38,8.22-22.43,14-31.5,7.09-11.11,17.35-22.11,25-32.5,14.88-9.49,35.1-8.27,48,4Z"/>
  <path class="st31" d="M410,132c11.06,27.47,17.71,55.09,11.5,85-.5-19.82,1.34-39.48-5.5-60.5-3.41-10.49-32.08-54.67-41.5-56.5-7.82-1.52-9.96,7.83-17,10-14.92,4.61-32.46-5.29-34.5-21,15.83,11.77,33.58,11.79,49.5,0l37.5,43Z"/>
  <path class="st3" d="M698,89c-2.66,16.9-20.51,27.4-36.5,20-4.96-2.29-8.53-10.65-15-9-1.82.46-23.2,24.27-25.5,27.5-19.64,27.57-21.87,56.35-21.5,89.5-3.36-3.19-2.39-5.3-2.5-9.5-.56-20.68,3.86-52.8,13-71.5,3.67-7.51,16.18-25.18,22-31.5,2.51-2.72,15.95-15.52,18.5-15.5.81,0,9.96,7.08,14,8,10.99,2.5,25.25-.02,33.5-8Z"/>
  <path class="st17" d="M602,236c-1.93,1.13-7.18,9.6-8,12-84.31-29.93-183.98-14.17-246,52.5-18.67,20.07-40.91,55.38-49,81.5,26.83-94.28,100.96-161.71,201.5-165,33.81-1.11,71.34,3.46,101.5,19Z"/>
  <path class="st42" d="M594,248c-5.86,17.25,3.07,40.6,23.5,29,1.31-.75,11.14-12.07,11.5-13,43.36,26.88,74.52,68.87,93,116,8.4,30.46,10.3,52.65,5,84-5.6,3.03-5.33,13.45-12,15-1.29-75.4-46.21-177.1-132.5-182-30.71-1.74-39.8,12.14-63,17-21.58,4.52-49.24-18.29-79-17-87.33,3.77-133.33,106.99-134.5,183l-12-17c-4.34-27.07-3.13-54.75,5-81,8.09-26.12,30.33-61.43,49-81.5,62.02-66.67,161.69-82.43,246-52.5Z"/>
  <path class="st52" d="M630,251c-.59,1.9-.66,12.11-1,13-.36.93-10.19,12.25-11.5,13-20.43,11.6-29.36-11.75-23.5-29,.82-2.4,6.07-10.87,8-12,3.17-1.85,12.77-2.12,15.5,0,3.22,2.49,2.15,7.05,2.5,7.5,2.43,3.09,6.67,4.88,10,7.5Z"/>
  <path class="st38" d="M722,380c-18.48-47.13-49.64-89.12-93-116,.34-.89.41-11.1,1-13,46.33,36.55,75.8,70.26,92,129Z"/>
  <path class="st49" d="M693,528c-6.04.23-8.69,9.53-13,14.5-64.91,74.82-260.11,72.55-331.5,7.5-3.2-2.91-11.69-17.29-15.5-13-35.44-77.51,7.33-215.91,103.5-224,29.29-2.46,38.85,10.8,63,16,29.37,6.32,52.18-18.91,86-16,92.39,7.95,135.11,138.83,107.5,215ZM393.5,368c-9.02,2.17-2.6,17.4,1.5,22.5,7.14,8.88,42.65,25.44,46,8-.74-3.58-23.96-12.5-28.5-15.5-6.11-4.04-14.25-16.14-19-15ZM624.5,368c-1.14.27-12.25,12.91-17,16-5.95,3.87-29.35,10.23-26.5,18.5,4.06,11.78,51.11-4.56,52-25,.19-4.34-2.94-10.8-8.5-9.5ZM407.5,415c-39.33,2.62-35.33,72.85,8,66,34.36-5.43,31.25-68.62-8-66ZM604.5,416c-29.78,5.35-30.25,60.2,1,65,47.11,7.23,47.49-73.71-1-65ZM647.5,479c-55.41,1.58-53.01,80.85,10,69,48.56-9.13,33.31-70.24-10-69ZM378.5,481c-57.93-.98-58.37,77.35,2,71,51.26-5.4,40.67-70.28-2-71ZM505.5,492c-7.59,1.25-23.03,16.08-15,24,10.41,2.4,8.07-11.25,17-13,13.84-2.71,14.27,11.77,18,13,13.61,4.49,6.92-14.67-1-20-4.97-3.35-13.15-4.96-19-4Z"/>
  <path class="st29" d="M393.5,368c4.75-1.14,12.89,10.96,19,15,4.54,3,27.76,11.92,28.5,15.5-3.35,17.44-38.86.88-46-8-4.1-5.1-10.52-20.33-1.5-22.5Z"/>
  <path class="st56" d="M624.5,368c5.56-1.3,8.69,5.16,8.5,9.5-.89,20.44-47.94,36.78-52,25-2.85-8.27,20.55-14.63,26.5-18.5,4.75-3.09,15.86-15.73,17-16Z"/>
  <path class="st29" d="M407.5,415c39.25-2.62,42.36,60.57,8,66-43.33,6.85-47.33-63.38-8-66ZM419.5,427c-14.74,1.35-13.84,28.86,2,28,15.53-.84,15.19-29.58-2-28Z"/>
  <path class="st29" d="M604.5,416c48.49-8.71,48.11,72.23,1,65-31.25-4.8-30.78-59.65-1-65ZM618.5,428c-12.52,3-10.02,28.26,5,27,16.16-1.36,14.75-31.73-5-27Z"/>
  <path class="st32" d="M419.5,427c17.19-1.58,17.53,27.16,2,28-15.84.86-16.74-26.65-2-28Z"/>
  <path class="st59" d="M618.5,428c19.75-4.73,21.16,25.64,5,27-15.02,1.26-17.52-24-5-27Z"/>
  <path class="st36" d="M299,526c-57.15-43.33-149.43-71.34-209-17.5l-16,21.5c20.5-94.49,143.81-87.79,204.5-41,11.25,8.67,13.58,24.14,20.5,37Z"/>
  <path class="st36" d="M947,529c-41.56-69.48-135.47-56.24-196.5-22-5.39,3.02-25.92,16.3-29.5,20,4.46-9.27,7.98-20.12,13-29,8.71-3.76,15-11.11,23-16,64.04-39.13,169.96-42.64,190,47Z"/>
  <path class="st46" d="M306,480c-.13,8.48,1.66,17.04,2,25.5l-3-1c-3.47-14.6-8.8-27.76-11-41.5l12,17Z"/>
  <path class="st15" d="M727,464c-2.37,13.99-6.74,27.4-12,40.5-1.8-7.05.16-16.11,0-25.5,6.67-1.55,6.4-11.97,12-15Z"/>
  <path class="st21" d="M745,474c-.35.28-3.35,6.43-5.5,7-2.98-1.93.17-4.98.5-7h5Z"/>
  <path class="st22" d="M299,526c16.78,31.2,39.7,56.33,70,75,.45,2.45,3.13,5.51,5,7l9,13.5c-28.36,17.04-49.88,40.48-72,64.5-97.41,5.49-210.87-42.16-239-143,.45-4.31,1.08-8.78,2-13l16-21.5c59.57-53.84,151.85-25.83,209,17.5ZM210.5,505c-8.47,1.55-9.25,18.42-1,22,15.9,6.89,16.15-24.77,1-22Z"/>
  <path class="st4" d="M647.5,479c43.31-1.24,58.56,59.87,10,69-63.01,11.85-65.41-67.42-10-69ZM664.5,490c-1.99.56-19.23,34.12-19.5,36.5-.74,6.65,3.78,7.49,8,3,2.37-2.53,17.24-35.62,16-38l-4.5-1.5ZM645.5,492c-2.82.32-24.3,38.85-18,42,2.22,1.11,4.16-1.12,5.5-2.5,1.61-1.67,17.49-35.02,17-37-.31-1.26-2.86-2.68-4.5-2.5Z"/>
  <path class="st22" d="M947,529c1.16,5.2,2.61,10.69,3,16-5.97,9.39-7.99,20.51-13,30.5-39.02,77.83-143.2,116.03-226,110.5-22.28-24.05-44.47-47.67-73-64.5l9-13.5c2.77-2.1,5.21-4.44,6-8,19.73-12.53,36.66-28.15,51-46.5,5.81-7.43,10.75-20.04,17-26.5,3.58-3.7,24.11-16.98,29.5-20,61.03-34.24,154.94-47.48,196.5,22ZM868.5,508c-7.78,1.87-11.15,18.11-2,20,15.51,3.2,21.57-24.71,2-20Z"/>
  <path class="st4" d="M378.5,481c42.67.72,53.26,65.6,2,71-60.37,6.35-59.93-71.98-2-71ZM392.5,492c-2.24.53-17.55,29.84-18.5,33.5-.7,2.69-2.24,6.35.5,8.5,4.77,2.24,20.44-29.3,21.5-33.5.86-3.41,2.76-9.99-3.5-8.5ZM373.5,494c-3.94.03-21.15,34.93-19.5,39.5.19.52,3.29,2.51,3.5,2.5,3.09-.11,21.06-37.3,19.5-40.5-1.16-.42-2.25-1.51-3.5-1.5Z"/>
  <path class="st54" d="M757,482c-8,4.89-14.29,12.24-23,16,.2-.34.13-3.31,1-4.5,2.7-3.71,16.45-12.82,22-11.5Z"/>
  <path class="st10" d="M664.5,490l4.5,1.5c1.24,2.38-13.63,35.47-16,38-4.22,4.49-8.74,3.65-8-3,.27-2.38,17.51-35.94,19.5-36.5Z"/>
  <path class="st10" d="M392.5,492c6.26-1.49,4.36,5.09,3.5,8.5-1.06,4.2-16.73,35.74-21.5,33.5-2.74-2.15-1.2-5.81-.5-8.5.95-3.66,16.26-32.97,18.5-33.5Z"/>
  <path class="st29" d="M516.06,489.7c-5.85.96-14.03-.65-19-4-7.92-5.33-14.61-24.49-1-20,3.73,1.23,4.16,15.71,18,13,8.93-1.75,6.59-15.4,17-13,8.03,7.92-7.41,22.75-15,24Z"/>
  <path class="st10" d="M645.5,492c1.64-.18,4.19,1.24,4.5,2.5.49,1.98-15.39,35.33-17,37-1.34,1.38-3.28,3.61-5.5,2.5-6.3-3.15,15.18-41.68,18-42Z"/>
  <path class="st60" d="M373.5,494c1.25-.01,2.34,1.08,3.5,1.5,1.56,3.2-16.41,40.39-19.5,40.5-.21,0-3.31-1.98-3.5-2.5-1.65-4.57,15.56-39.47,19.5-39.5Z"/>
  <path class="st55" d="M210.5,505c15.15-2.77,14.9,28.89-1,22-8.25-3.58-7.47-20.45,1-22Z"/>
  <path class="st27" d="M868.5,508c19.57-4.71,13.51,23.2-2,20-9.15-1.89-5.78-18.13,2-20Z"/>
  <path class="st19" d="M693,528c-43.36,119.61-308.38,121.91-360,9,3.81-4.29,12.3,10.09,15.5,13,71.39,65.05,266.59,67.32,331.5-7.5,4.31-4.97,6.96-14.27,13-14.5Z"/>
  <path class="st44" d="M311,686c-3.52,3.82-14.91,20.09-18.5,21-91.93,1.9-232.19-51.62-220.5-164,28.13,100.84,141.59,148.49,239,143Z"/>
  <path class="st45" d="M950,545c8.2,111.54-128.55,163.39-220.5,162-5.85-1.46-14.32-16.49-18.5-21,82.8,5.53,186.98-32.67,226-110.5,5.01-9.99,7.03-21.11,13-30.5Z"/>
  <path class="st35" d="M653,600c-.79,3.56-3.23,5.9-6,8-1.44,1.09-27.24,16.6-24,7.5,8.62-6.01,21.61-10.17,30-15.5Z"/>
  <path class="st26" d="M374,608c-1.87-1.49-4.55-4.55-5-7,3.63,2.24,29.88,13.82,30,15.5.49,6.55-22.53-6.53-25-8.5Z"/>
  <path class="st11" d="M420,623c21.67,25.27,48.08,46.5,70,71.5,6.05,6.9,9.77,15.15,15,21.5l-94.5-96c2.02-1.18,7.46,2.5,9.5,3Z"/>
  <path class="st47" d="M530,695l70-72c3.01-.73,6.71-4.03,10.5-3-8.45,8.44-70.61,77.06-76,78-2.06.36-3.73-2.49-4.5-3Z"/>
  <path class="st9" d="M439,627l115,107c1.76,1.85,7.13,4.03,6.5,7-8.43-1.39-23.46,1.88-31,0-4.55-1.13-20.75-20.45-24.5-25-5.23-6.35-8.95-14.6-15-21.5-21.92-25-48.33-46.23-70-71.5,5.42,1.33,14.04,2.27,19,4Z"/>
  <path class="st48" d="M600,623l-70,72c-2.81-1.84-7.32-6.12-9-9l63-59c5.19-1.93,10.65-2.7,16-4Z"/>
  <path class="st25" d="M404.5,627l114.5,112.5c-.72.93-20.46.62-23.5.5-13.62-.54-42.39-2.35-55-5-.53-.11-5.04-5.24-9-6-13.42-2.58-17.03,3.84-24,5-2.18.36-42.48-3.39-44-5,5.96-36.34,20.24-71.59,41-102Z"/>
  <path class="st33" d="M554,734l-115-107c7.47,2.61,11.01,7.35,17.5,13,31.82,27.67,68.36,63.39,97.5,94Z"/>
  <path class="st39" d="M584,627l-63,59c-.08-.14-2.63-1-2-2.5,14.91-13.15,28.51-28.53,43.5-41.5,9.04-7.82,10.6-10.94,21.5-15Z"/>
  <path class="st6" d="M615.5,627c2.44-.3,8.16,9.4,9.5,11.5,16.47,25.94,25.96,59.51,34,89l-74.5,10.5c1.55-2.13,13.94-14.94,15-15,.43-.03,5.45,4.66,7,5,21.77,4.76,30.39-27.24,7.5-33.5,8.4-15.02,17.44,9.42,21,2,4.81-10.03-20.41-18.24-26.5-6.5-.72-38.17-51.49-10.28-21.5,11.5l-27,11,15.5,26.5-36.5-35.5,76.5-76.5Z"/>
  <path class="st62" d="M546,642h-71c-3.69-3.67-9.26-5.85-11.5-11h94c-3.26,4.11-7.8,7.33-11.5,11Z"/>
  <path class="st5" d="M742,755c-4.57-1.46-7.28-7.31-10-11-20.7-28.07-40.55-53.39-66.5-77-5.61-5.11-13.72-12.83-20.5-15-2.34-5.21-6.59-10.21-9-15.5,1.4-2.23,6.05.7,7.5,1.5,23.02,12.73,70.33,67.63,85.5,90.5,3.83,5.77,14.48,20.4,13,26.5Z"/>
  <path class="st53" d="M376,652c-3.33,3.6-12.41,8.18-16.5,12-28.86,26.94-47.22,49.45-70.5,81-2.59,3.5-5.4,7.43-9,10-2.42-5.98,9.89-22.42,14-28.5,13.69-20.25,65.67-80.87,86.5-89.5,1.29-.54,4.47-2.33,4.5.5-3.85,4.41-4.97,10.13-9,14.5Z"/>
  <path class="st32" d="M546,642c-4.46,4.41-33.09,33.64-36.5,33-12.02-10.47-23.23-21.76-34.5-33h71Z"/>
  <path class="st20" d="M349,773c-24.18.69-42.42-13.37-60-28,23.28-31.55,41.64-54.06,70.5-81,4.09-3.82,13.17-8.4,16.5-12-11.41,25.15-18.02,50.7-24,77.5-.27,1.21-3.72,1.79-4,3-1.6,6.99-1.94,26.94-2,35,0,.78,2.97,3.23,3,5.5Z"/>
  <path class="st1" d="M732,744c-16.26,16.89-36.01,28.8-60,30-.5-12.27,3.05-29.41,1-41.5-.11-.67-3.86-3.3-4-4-5.5-28.19-12.23-50.3-24-76.5,6.78,2.17,14.89,9.89,20.5,15,25.95,23.61,45.8,48.93,66.5,77Z"/>
  <path class="st50" d="M602,682l-13.5,3,1.5-7c4.08-1.45,10.54-1.12,12,4Z"/>
  <path class="st58" d="M590,678l-1.5,7,13.5-3c2.4,8.4-4.55,16.69-13.5,13-7.8-3.22-6.23-14.26,1.5-17Z"/>
  <path class="st36" d="M179,699c-40.21,24.57-76.78,68.76-62,118.5.3,1.01,1.59,4.2-1,3.5-31-39.44-7.72-106.84,35.5-126,12.4-5.5,15.65.18,27.5,4Z"/>
  <path class="st36" d="M905,821c9.45-34.5-3.02-66.64-26-92.5-4.65-5.23-29.65-27.57-35-28.5,16-12.39,25.43-7.27,39.5,4,34.71,27.8,51.33,79.45,21.5,117Z"/>
  <path class="st61" d="M171,830c-17.84,5.92-36.16-.57-53-7-.6-.68-1.29-1.1-2-2,2.59.7,1.3-2.49,1-3.5-14.78-49.74,21.79-93.93,62-118.5,15.62,5.03,30.93,10.74,47,14.5-42.52,28.02-66.74,64.16-55,116.5Z"/>
  <path class="st12" d="M609,700l-6,4.5c11.7-.42,16.26,3.33,13,15.5-15,8.27-24.99-20.69-7-20Z"/>
  <path class="st8" d="M616,720c3.26-12.17-1.3-15.92-13-15.5l6-4.5c11.22.43,18.68,13.56,7,20Z"/>
  <path class="st61" d="M844,700c5.35.93,30.35,23.27,35,28.5,22.98,25.86,35.45,58,26,92.5-.71.89-1.39,1.31-2,2-16.39,6.44-34.63,12.76-52,7,10.98-51.69-13.08-90-56-116.5,9.93-.73,41.57-14.79,49-13.5Z"/>
  <path class="st13" d="M593,709c-4.69.97-9.39,13.47-5,16-2.3,2.24-5.14,3.83-7.5,6l-11.5-15.5,22.5-8.5,1.5,2Z"/>
  <path class="st51" d="M593,709c1.63,9.46,1.4,9.75-5,16-4.39-2.53.31-15.03,5-16Z"/>
  <path class="st57" d="M264,719c1.66,1.99-.24,2.29-1.5,3-12.78,7.17-23.52,12.19-35,22-34.43,29.43-47.45,64.9-27.5,108-4.63-4.75-7.78-10.79-13-15-15.02-40.91-2.59-74.79,30.5-102,18.27-15.03,23.65-17.83,46.5-16Z"/>
  <path class="st36" d="M835,838c-6.95,3.09-9.74,10.9-15,16,22.3-44.3,8.31-80.73-27.5-111l-35.5-24c14.84-1.23,14.34-4.33,28.5,3,43.31,22.41,66.55,68.84,49.5,116Z"/>
  <path class="st22" d="M349,843c-40.2,30.87-109.23,49.83-149,9-19.95-43.1-6.93-78.57,27.5-108,11.48-9.81,22.22-14.83,35-22,1.26-.71,3.16-1.01,1.5-3,6.52.52,13.47.89,20,.5,2.15,3.68-21.97,24.7-15,42,.68,1.7,7.66,6.68,8,8,.92,3.59-3.45,19.11-3,26,2.42,37.38,46.04,43.33,72.5,26.5,1.9.75,2.21,17.63,2.5,21Z"/>
  <path class="st37" d="M757,719l35.5,24c35.81,30.27,49.8,66.7,27.5,111-40.12,38.93-107.47,18.02-148-10,.19-3.07,1.72-21.43,3.5-22,24.33,17.05,67.72,10.56,71.5-23.5.85-7.69-3.61-25.4-3-28,.34-1.46,7.79-6.6,9-10,5.31-14.94-9.61-28.03-16-40,6.43-2.8,13.37-.95,20-1.5Z"/>
  <path class="st59" d="M422.5,738c2.7-.09,4.47.56,7,1,2.3,2.53-9.89,16.79-11.5,21.5-8.32,24.26-1.53,61.51,0,87l-27.5.5c-3.46-22.46.36-108.94,32-110Z"/>
  <path class="st59" d="M358.5,739l39.5,4.5c-4.09,2.27-9.01,21.31-10,22-2.3,1.59-31.21-3.21-32-5-.44-.99,1.18-20.91,2.5-21.5Z"/>
  <path class="st32" d="M654.5,739c1.59-.07,7.88-.37,8.5.5-1.39,3.99,2.46,19.33-.5,21.5-1.57,1.15-33.54,7.32-38,8-51.11,7.82-103.44,6.17-155,5l-30.5-27.5c-1.94-6.94,10.95-.73,13.5-.5,42.94,3.92,86.97,6.44,130,3,22.59-1.81,49.8-9.04,72-10Z"/>
  <path class="st24" d="M742,755c-1.87,7.72-64.47,46.73-68,41.5.84-7.56-1.7-15.11-2-22.5,23.99-1.2,43.74-13.11,60-30,2.72,3.69,5.43,9.54,10,11Z"/>
  <path class="st30" d="M349,773c.11,7.56-1.78,15.9-2,23.5-3.5,4.46-63.33-32.43-67-41.5,3.6-2.57,6.41-6.5,9-10,17.58,14.63,35.82,28.69,60,28Z"/>
  <path class="st32" d="M432.5,755c9.2-2.06,39.31,39.24,44.5,47.5l-18.5,14.5c-3.66.02-33.17-41.92-33.5-47.5-.11-1.87,5.76-14.11,7.5-14.5Z"/>
  <path class="st20" d="M660,850c-2.1,1.99-5.13,6.65-7.5,8-13.76,7.85-57.95,14.89-75,17-48.76,6.03-98.44,5.37-147-2-22.43-3.41-49.6-7.54-68.5-20-4.71-25.9-5.71-55.07-1.5-81l24.5,5.5c-2.09,12.79-4.4,26.04-5,39-.28,6.13-1.31,38.97,2.5,40.5,7.3-1.39,42.32,5.11,44.5-.5,4.09-10.54-7.18-52.49-2.5-66.5,4.86,5.48,26.05,36.73,31,38,3.07.79,31.89-18.64,32.5-20.5,2.1-6.38-10.46-16.56-11.5-23.5,62.23,2.95,124.7-.51,185.5-11.5,1.68,25.71,1.97,51.97-2,77.5Z"/>
  <path class="st59" d="M318,798c-2.43,7.69-7.47,13.4-13,19-16.72-4.02-20.7-22.44-17-37.5,10.52,5.15,19.81,12.77,30,18.5Z"/>
  <path class="st59" d="M714,818l-11-20c10.03-5.53,19.8-11.66,29-18.5l2,1c4.15,14.73-3.55,35.16-20,37.5Z"/>
  <path class="st2" d="M305,817c5.53-5.6,10.57-11.31,13-19,2.84,1.59,23.23,9.36,23,11.5-9.39,7.7-24.25,10.33-36,7.5Z"/>
  <path class="st7" d="M714,818c-10.39,1.48-25.6-1.86-34-8.5-.2-1.84,20.07-9.88,23-11.5l11,20Z"/>
  <path class="st14" d="M171,830c1.37,6.11,3.41,11.82,6,17.5-20.85,3.22-45.15-8.71-59-24.5,16.84,6.43,35.16,12.92,53,7Z"/>
  <path class="st40" d="M903,823c-14.74,16.61-35.57,26-58,25.5-.94-1.15,5.42-15.77,6-18.5,17.37,5.76,35.61-.56,52-7Z"/>
  <path class="st44" d="M200,852c39.77,40.83,108.8,21.87,149-9,.39,4.49,3.22,13.36,2,17.5-2.16,7.3-37.51,24.97-45.5,27.5-54.27,17.22-98.2,4.28-118.5-51,5.22,4.21,8.37,10.25,13,15Z"/>
  <path class="st45" d="M835,838c-17.32,47.91-55.97,63.84-104.5,54-10.55-2.14-56.49-20.94-59.5-30.5-1.19-3.78.72-13.09,1-17.5,40.53,28.02,107.88,48.93,148,10,5.26-5.1,8.05-12.91,15-16Z"/>
  <path class="st43" d="M362,853c18.9,12.46,46.07,16.59,68.5,20,48.56,7.37,98.24,8.03,147,2,17.05-2.11,61.24-9.15,75-17,2.37-1.35,5.4-6.01,7.5-8-1.39,8.93-.4,19.47-11.5,24-17.16,7-86.3,14.9-107,16-41.83,2.22-124.37-1.95-164-14-14.71-4.47-13.4-11.45-15.5-23Z"/>
  <path class="st16" d="M613,899l-74,19c-.14-2.73-1.86-14.61.5-16l75.5-9.5c.66,1.1-1.77,5.4-2,6.5Z"/>
  <path class="st0" d="M482,918l-74-18c-.42-2.2-1.47-4.11-1-6.5l75.5,8.5c2,1.42-.41,13.57-.5,16Z"/>
  <path class="st18" d="M482,918c-.93,26.25-7.18,61.94-40.5,38-13.65-9.81-30.35-39.67-33.5-56l74,18Z"/>
  <path class="st18" d="M613,899c-3.87,18.24-16.46,44.56-31.5,56-33.75,25.68-41.08-9.46-42.5-37l74-19Z"/>
  <rect class="st49" x="468.92" y="491.73" width="80.71" height="32.23"/>
</svg>