<?xml version="1.0" encoding="UTF-8"?>
<svg id="_레이어_1" data-name="레이어_1" xmlns="http://www.w3.org/2000/svg" version="1.1" viewBox="0 0 1024 1024">
  <!-- Generator: Adobe Illustrator 30.3.0, SVG Export Plug-In . SVG Version: 2.1.3 Build 182)  -->
  <defs>
    <style>
      .st0 {
        fill: #fbc34b;
      }

      .st1 {
        fill: #fdefdc;
      }

      .st2 {
        fill: #fddcba;
      }

      .st3 {
        fill: #fefbc2;
      }

      .st4 {
        fill: #fdfbd3;
      }

      .st5 {
        fill: #fcb98e;
      }

      .st6 {
        fill: #fcfae2;
      }

      .st7 {
        fill: #81cde8;
      }

      .st8 {
        fill: #c5e6f7;
      }

      .st9 {
        fill: #a6dbf1;
      }

      .st10 {
        fill: #5695ac;
      }

      .st11 {
        fill: #fcfbe9;
      }

      .st12 {
        fill: #cf6b3d;
      }

      .st13 {
        fill: #dc7e4b;
      }

      .st14 {
        fill: #fdbf94;
      }

      .st15 {
        fill: #fec093;
      }

      .st16 {
        fill: #fef08d;
      }

      .st17 {
        fill: #69c6e3;
      }

      .st18 {
        fill: #fffef1;
      }

      .st19 {
        fill: #f7fbfd;
      }

      .st20 {
        fill: #6fa8b5;
      }

      .st21 {
        fill: #fec87a;
      }

      .st22 {
        fill: #f9a639;
      }

      .st23 {
        fill: #fbb98d;
      }

      .st24 {
        fill: #e49464;
      }

      .st25 {
        fill: #3e2007;
      }

      .st26 {
        fill: #4fa4c3;
      }

      .st27 {
        fill: #db895d;
      }

      .st28 {
        fill: #fedfa6;
      }

      .st29 {
        fill: #dc8a59;
      }

      .st30 {
        fill: #8ccee7;
      }

      .st31 {
        fill: #c3e6f6;
      }

      .st32 {
        fill: #f99a3a;
      }

      .st33 {
        fill: #fdc297;
      }

      .st34 {
        fill: #fee371;
      }

      .st35 {
        fill: #da7f4d;
      }

      .st36 {
        fill: #d16e2b;
      }

      .st37 {
        fill: #fedfa8;
      }

      .st38 {
        fill: #442508;
      }

      .st39 {
        fill: #fec59a;
      }

      .st40 {
        fill: #50a4c3;
      }

      .st41 {
        fill: #e69e71;
      }

      .st42 {
        fill: #f9fbfc;
      }

      .st43 {
        fill: #522b0d;
      }

      .st44 {
        fill: #c4e6f7;
      }

      .st45 {
        fill: #dc8d61;
      }

      .st46 {
        fill: #6ac5e4;
      }

      .st47 {
        fill: #fefff7;
      }

      .st48 {
        fill: #fef69f;
      }

      .st49 {
        fill: #fec56e;
      }

      .st50 {
        fill: #f8fbfd;
      }

      .st51 {
        fill: #c66438;
      }

      .st52 {
        fill: #fcbc8f;
      }

      .st53 {
        fill: #7ecbe7;
      }

      .st54 {
        fill: #e8a074;
      }

      .st55 {
        fill: #f8fcfd;
      }

      .st56 {
        fill: #5ca6bf;
      }

      .st57 {
        fill: #fffefe;
      }

      .st58 {
        fill: #fef6a8;
      }

      .st59 {
        fill: #feee91;
      }

      .st60 {
        fill: #e79e72;
      }

      .st61 {
        fill: #fac096;
      }

      .st62 {
        fill: #de8653;
      }

      .st63 {
        fill: #fde272;
      }

      .st64 {
        fill: #f99a3c;
      }

      .st65 {
        fill: #e8a073;
      }

      .st66 {
        fill: #e49f74;
      }

      .st67 {
        fill: #d98353;
      }

      .st68 {
        fill: #fdd5b5;
      }

      .st69 {
        fill: #fee3c1;
      }

      .st70 {
        fill: #4ea3c3;
      }

      .st71 {
        fill: #fffefd;
      }

      .st72 {
        fill: #fbba5f;
      }

      .st73 {
        fill: #fcda60;
      }

      .st74 {
        fill: #f8cda6;
      }

      .st75 {
        fill: #fde16f;
      }

      .st76 {
        fill: #fce9cf;
      }

      .st77 {
        fill: #8dcfe7;
      }

      .st78 {
        fill: #e79e70;
      }

      .st79 {
        fill: #7fcce8;
      }

      .st80 {
        fill: #fcc095;
      }

      .st81 {
        fill: #e99e73;
      }

      .st82 {
        fill: #fdc196;
      }

      .st83 {
        fill: #facb52;
      }

      .st84 {
        fill: #f9c44e;
      }

      .st85 {
        fill: #f7fafd;
      }

      .st86 {
        fill: #83cee9;
      }

      .st87 {
        fill: #5aa3bc;
      }

      .st88 {
        fill: #5da2bb;
      }

      .st89 {
        fill: #fefdf0;
      }

      .st90 {
        fill: #fde4c6;
      }

      .st91 {
        fill: #bd5b33;
      }

      .st92 {
        fill: #fefdf6;
      }

      .st93 {
        fill: #7dcbe7;
      }

      .st94 {
        fill: #fefcfb;
      }

      .st95 {
        fill: #faf9ef;
      }

      .st96 {
        fill: #56a9c8;
      }

      .st97 {
        fill: #51a3c3;
      }

      .st98 {
        fill: #db804e;
      }

      .st99 {
        fill: #8ecfe9;
      }

      .st100 {
        fill: #feca7e;
      }

      .st101 {
        fill: #f6fafc;
      }

      .st102 {
        fill: #fdc448;
      }

      .st103 {
        fill: #c56739;
      }

      .st104 {
        fill: #fdebd7;
      }

      .st105 {
        fill: #fcc499;
      }

      .st106 {
        fill: #432408;
      }

      .st107 {
        fill: #fec979;
      }

      .st108 {
        fill: #fdde9c;
      }

      .st109 {
        fill: #dc834f;
      }

      .st110 {
        fill: #62bedf;
      }

      .st111 {
        fill: #d67543;
      }

      .st112 {
        fill: #8ed0e8;
      }
    </style>
  </defs>
  <path class="st25" d="M805,460c-8-4.89-13.85,5-19,8-5.14,3-11.07,7.68-17,9-7.61,1.69-10.68,1.54-17.5-2-7.5-3.9-26.78-29.33-29-30-21.54-6.48-72.94,23.78-93.5,32.5,1.88,1.7,3.47,3.49,5,5.5,2.7,3.54,5.65,5.98,8,10,20.61,35.22-7.13,51.37,0,82.5,6.53,28.49,48.53,29.29,55,0,5.11-23.14-10.86-41.56-8-64,1.57-12.32,12.58-26.83,21-35.5,3.41-.01,21.18-.86,22,.5-5.51,2.65-9.21,4.59-14,8.5-35.46,28.96-5.63,53.91-9,86.5-.73,7.06-6.09,15.32-7,20.5-19.63,26.94-64.12,19.42-71-14.5-8.03-39.58,28.14-53.42-10-90.5-10.43-10.14-16.83-11.37-26.5-19-8.85-6.98-16.41-20.69-25-26-11.43-7.06-47.91-12.81-61-11-25.53,3.52-43.38,46.94-76,51-32.12,4-80.95-41.32-116-40-14.75.56-24.68,37.08-52.5,33-8.57-1.26-12.02-4.87-19-8-3.28-1.47-8.96-6.4-12-7-22.27-4.38-50.97,3.66-72.5-12-33.06-24.05,17.32-39.56,33-49,20.87-12.57,40.77-26.71,61.5-39.5-8.18-9.59-2.19-15.95,9-17-5.43-21.63-18.01-64.33-6-84,16.76-27.44,89.37-30.93,118.5-34.5-4.34-9.84,1.49-18.96,1.5-26.5.02-15.57-5.9-22.24,1-41,6.32-17.17,13.21-13.65,22.5-21.5,4.89-4.14,6.71-12.94,15-18,5.51-3.36,13.39-3.58,16-5,4.57-2.49,9.05-12.76,19-16,14.33-4.67,54.83-.59,70,3,4.93,1.17,11.77,7.32,14,8,3.16.96,11.32-.29,16,1,7.79,2.14,14.05,10.4,18,12,1.63.66,9.39.34,11,1,15.34,6.29,20.12,15.59,25,31,72.93-2.89,145.97-12.18,219-13,13.8-.15,54.85-1.67,65,5,12.09,7.94,11.49,34-1,41-12.78,7.15-67.75,6.86-85,7-64.92.52-130.14-5.16-195-7-4.55,15.07-8.61,28.44-23.5,36.5,44.58,3.25,90.52,2.73,134.5,11.5,63.07,12.57,64.42,31.49,53.5,90.5-.66,3.59-6.4,18-6,20,.17.85,4.5,3.8,5,5,.98,2.33,3.54,11.34,4,12,6.67,9.51,76.13,42.72,90.5,52.5,13.5,9.19,23.2,17.22,9,31-20.91,20.29-45.63,13.52-70.5,16ZM472,110c-7.99,1.87-12.67,16.65-15,23-4.08,11.13-6.79,19.73-7,32-.09,5.05-.44,11.16,1,16,.33,7.37,1.85,16,4,23,.8,2.6,5.72,16.32,7.5,17,.73.28,12.79.76,15.5,1,2.92.26,5.72,1.13,8.5,2,1.46-.66-2.3-6.38-2.5-7-2.82-8.93-5.58-17.67-7-27-2.43-15.97,1.05-36.51-1-48,3.46-10.21,6.51-19.71,12-29,.36-.61,6.09-6.07,6-6.5-5.98-4.67-17.48-2.61-22,3.5ZM434,127c-2.12,4.38-3.89,10.26-5,15-1.61,6.86-2.7,13.93-3,21-.41,9.76.5,16.55,2,26,2.54,16.07,5.07,38.53,27,31.5-13.69-25.93-15.33-54.62-7-82.5,1.93-6.47,4.79-14.11,8-20,.7-1.28,9.48-11.9,9-12.5-13.34-2.95-25.79,10.75-31,21.5ZM498,114c-6.53,5.28-8.06,9.26-11,17-8.62,22.7-6.93,46.93-1,70,6.32,24.57,9.68,32.44,36,18.5-4.42-8.68-6.28-18.01-8-27.5-4.08-22.55-6.5-40.14,3-62,.91-2.09,2.86-5.98,4-8,.52-.91,7.05-6.99,7-7.5-10.83-7.27-19.22-9.22-30-.5ZM528,126c-13.29,11.41-11.23,42.36-9,58,1.17,8.18,4.34,23.88,8,31,7.43,14.45,20.36,9.47,32,2.5-4.09-9.48-6.78-19.33-8-29.5-1.98-16.47.38-26.79,1-42,.1-2.42,1.1-3.75,1-6,3.15-8.01,12.33-11.27,3.5-18-7.05-5.37-24.92-7.02-28.5,4ZM404,158c-.64,4.24-1.08,9.71-1,14,.08,4.46,1.14,8.67,2,13,3.11,15.52,7.57,25.03,22.5,32,1.27-.68-6.04-24.81-6.5-28-.86-6-2.11-18.18-2-24,.15-8.01,2.51-15.33,4-23,1.15-5.96,2.7-11.59,4-17.5-13.66,3.4-21.04,20.54-23,33.5ZM557,155c-.37,2.72.14,6.12,0,9-.3,6.05-.45,8.83,0,15,.63,8.61,1.4,15.72,4,24,4.12,13.12,7.84,17.01,23.5,10,6.87-3.07,16.26-18.71,16-26-5.76.55-7.17,1.12-12.5-1-13.33-5.3-8.49-40.53,10.5-33l.5-2c-13.41-24.93-37.27-30.98-42,4ZM591,163c-3.91,3.81-3.46,8.89-2.5,14,29.79.61,59.7,1.77,89.5,3,56.26,2.32,136.33,9.95,190.5,2,13.88-2.04,24.79-5.38,21.5-22-2.09-10.56-7.63-10.58-17-12-6.23-.95-14.59-.84-21-1-40.97-1.02-87.25,2.66-128.5,5-36.14,2.05-93.54,2.11-127,8-4.11.72-3.93,1.47-5.5,3ZM398.5,148c-11.89,6.74-17.76,25.67-15.5,38.5,1.88,10.65,8.8,4.32,16.5,10.5l-1-49ZM528,232c-9.66-1.53-11.66,3.01-19.5,4-7.09.89-14.48-.47-21.5-1-23.09-1.75-53.36-2.25-73.5-14-4.85-2.83-22.09-19.15-26-18-14.65,25.36,26.02,34.94,31.5,57.5,4.7,19.35-19.21,73.5,16.5,68.5,30.43-4.26,9.44-49.64,23.5-66.5,15.4-18.47,49.82-5.22,70.5-14.5,7.69-3.45,5.76-5.65,9.5-11.5-.25-.86-9.66-4.29-11-4.5ZM539,253c-4.37,2.72-10.9,4.17-16,5-15.35,2.49-34.13-.39-49,6-5.42,2.33-7.05,3.45-10,9-9.06,17.06,6.35,59.28-25.5,65-46.11,8.28-26.66-42.38-27.5-64-.83-21.21-15.58-27.3-29.5-40-24.78,2.81-98.79,7.33-113.5,28.5-11.15,16.05,1.57,59.4,6,78,2.16,2.96,7.94.83,11,1.5,5.33,1.17,10.66,2.81,16,4,98.82,21.97,211.25,23.97,312,16,.33-.03.67.03,1,0,47.63-3.83,94.99-10.17,141.5-21,5.65-3.95,12.34-47.48,12.5-55.5.24-12.14.65-18.33-9-26.5-19.42-16.45-90.78-23.27-117.5-25-10.04-.65-50.01-3.04-57-1-1.04.3-14.9,12.36-16.5,14-17.25,17.61-1.82,40.63-7,63-7.65,13.99-7.4,16.65-25,13-9.15-4.01-9.98-16.51-10-25.5,0-1.8-.96-4.95,2-4.5,1.36,8.3,2.26,16.68,11,21,23.9,11.8,19.08-31.08,18-42,2.4-4.56.74-15.33,2-19.5,1.84-6.12,16.68-20.77,16-26.5-.78-6.65-15.35.6-18.5,3-7.18,5.46-7.33,17.67-17.5,24ZM712,381c2.74,1.98,6.51,4.04,9,6,14.01,11.06,33.95,30.7,40,47.5,1.91,5.29,4.52,26.53,6,29,2.66,4.44,10.43-3.14,13-4.5,27.82-14.77,52.49-34.16,86-33.5-32.77-17.2-63.58-37.74-96-55.5-.63-.34-1.79-3.36-3-4-2.43-5.6-.07-12.53-6.5-15l-73,13c7.31,6.7,16.48,11.21,24.5,17ZM268,363c-.2,3.91-1.67,3.61-4,5-3.05,1.82-7.4,2.1-10.5,4-27.7,16.96-53.31,37.44-83.5,50.5,16.25.1,27.04,5.87,41,12.5,15.04,7.15,29.51,18.92,44,25,.65.27,3.94,3.03,4.5,3l2.5-1.5c4.17-32.2,25.48-57.02,50-76.5,2.44-1.94,5.47-4.15,8-6,7.17-5.24,16.15-8.52,22.5-15-26.83-2.43-52.02-13.33-79-12l-1,2c3.13,3.42,5.76,3.99,5.5,9ZM337,381c-22.02,14-49.67,35.06-57.5,60,11.66-12.48,30.98-10.85,46.5-8,10.71,1.97,30.1,8.79,40.5,13,12.35,5.01,46.28,26.53,56.5,25,6.33-.95,11.46-14.47,16-19.5,3.97-4.4,14.14-13.46,19-16.5,28.71-17.98,92.29-19.88,120,0,13.45,9.65,14.06,21.79,33,29,6.7,2.55,7.97,4.59,15.5,3,24.74-5.21,48.06-27.21,82.5-32,7.49-1.04,20.21-2.53,27.5-2,2.88.21,12.98,5.7,13.5,2.5-12.1-22.78-32.7-38.83-54-52.5-3.79-2.43-23.05-15.57-25.5-16-6.2-1.09-17.8,2.53-24.5,3-23.63,1.65-47.34,3.88-71,5-7.34.35-14.64.77-22,1-22.35.69-44.65.55-67,0-9.06-.22-17.97-.61-27-1-23.98-1.04-48.06-3.32-72-5-6.91-.49-22.05-3.88-27.5-3-3.89.62-18.19,11.26-22.5,14ZM164.5,433c-.34.08-2.28,1.45-3.5,1.5,13.91,13.62,32.96,12.61,51,15-7.54-9.9-36.02-19.04-47.5-16.5ZM847.5,436c-11.4,1.45-22.18,8.94-32.5,13.5,17.83,1.36,39.88-.9,54.5-11.5.69-2.92-18.66-2.43-22-2ZM476.5,437c-17.16,7.79-29.73,19.6-39.5,35.5,13.38-3.88,22.59-14.6,32-24l7.5-11.5ZM294.5,442c-6.66.36-14.99,10.98-14,18l16.5-17.5c-.41-.78-1.61-.55-2.5-.5ZM738.5,445l10,12c2.13-.81-5.78-13.55-10-12Z"/>
  <path class="st27" d="M488,113c-1.66-3.82-12.66-3.78-16-3,4.52-6.11,16.02-8.17,22-3.5.09.43-5.64,5.89-6,6.5Z"/>
  <path class="st105" d="M456,118c-3.59,1.06-7.13,3.77-10,6-1.43-2.01-7.34,2.24-8,3h-4c5.21-10.75,17.66-24.45,31-21.5.48.6-8.3,11.22-9,12.5Z"/>
  <path class="st45" d="M521,122c-5.43-6.86-14.66-9.77-23-8,10.78-8.72,19.17-6.77,30,.5.05.51-6.48,6.59-7,7.5Z"/>
  <path class="st14" d="M488,113c-5.49,9.29-8.54,18.79-12,29-1.62-9.06-9.7,4.53-16.5,2l-2.5-11c2.33-6.35,7.01-21.13,15-23,3.34-.78,14.34-.82,16,3ZM466.5,123l-4,7c3.73,1.44,6.6-7.04,4-7Z"/>
  <path class="st82" d="M521,122c-1.14,2.02-3.09,5.91-4,8-4.79.22-4.09,7.57-7,10.5-5.88,5.91-16.24,4.73-20-3-.8-1.65,2.11-9.86-3-6.5,2.94-7.74,4.47-11.72,11-17,8.34-1.77,17.57,1.14,23,8ZM500.5,120c-3.18-.34-8.12,4.44-9.5,7.5,4-1.95,8.16-4.2,12-6-.87-.16-2.36-1.49-2.5-1.5Z"/>
  <path class="st52" d="M456,118c-3.21,5.89-6.07,13.53-8,20-8.58,3.83-9.49,14.22-19,4,1.11-4.74,2.88-10.62,5-15h4c-.56.65-2.65,4.48-1.5,5,3.66-2.11,6.21-5.45,9.5-8,2.87-2.23,6.41-4.94,10-6Z"/>
  <path class="st67" d="M553,140c-.6-13.13-13.22-24.12-25-14,3.58-11.02,21.45-9.37,28.5-4,8.83,6.73-.35,9.99-3.5,18Z"/>
  <path class="st76" d="M500.5,120c.14.01,1.63,1.34,2.5,1.5-3.84,1.8-8,4.05-12,6,1.38-3.06,6.32-7.84,9.5-7.5Z"/>
  <path class="st65" d="M553,140c.1,2.25-.9,3.58-1,6-5.51-1.8-10.83,15.26-11,18.5-.49,9.28,5.62,16.66,7,24.5.06.32-.04.67,0,1,2.02,14.99-8.56,22.83-19,10.5-3.7-4.37-4.67-15.69-10-16.5-2.23-15.64-4.29-46.59,9-58,11.78-10.12,24.4.87,25,14ZM533.5,127c-6.22.99-10.84,14.62-4,17,13.78,4.8,22.13-19.89,4-17ZM527.5,158c-7.54,2.32-8.3,28.28,2,27,9.99-1.24,9.7-30.6-2-27Z"/>
  <path class="st104" d="M446,124c-3.29,2.55-5.84,5.89-9.5,8-1.15-.52.94-4.35,1.5-5,.66-.76,6.57-5.01,8-3Z"/>
  <path class="st1" d="M466.5,123c2.6-.04-.27,8.44-4,7l4-7Z"/>
  <path class="st15" d="M423,142c-8.39,2.08-6.68,20.19-19,16,1.96-12.96,9.34-30.1,23-33.5-1.3,5.91-2.85,11.54-4,17.5Z"/>
  <path class="st39" d="M533.5,127c18.13-2.89,9.78,21.8-4,17-6.84-2.38-2.22-16.01,4-17Z"/>
  <path class="st41" d="M517,130c-9.5,21.86-7.08,39.45-3,62-4.25,9.24,2.3,29.47-15.5,22-4.77-2-7.41-11.76-12.5-13-5.93-23.07-7.62-47.3,1-70,5.11-3.36,2.2,4.85,3,6.5,3.76,7.73,14.12,8.91,20,3,2.91-2.93,2.21-10.28,7-10.5ZM492.5,155c-6.51,1.18-8.15,29,1,32,17.62.59,8.83-33.78-1-32Z"/>
  <path class="st62" d="M599,151c-14.27-.69-13.8-11.81-24,5-.18-1.02-3.3-6.61-4.5-7-7.49-2.57-7.96,6.05-13.5,6,4.73-34.98,28.59-28.93,42-4Z"/>
  <path class="st78" d="M476,142c2.05,11.49-1.43,32.03,1,48-1.12,18.59-4.11,29.26-22,14-2.15-7-3.67-15.63-4-23,10.49,35.28,30.52-30.44,9-25-6.15,1.56-2.72,1.82-5,5-1.22,1.7-2.18,4.16-5,4,.21-12.27,2.92-20.87,7-32l2.5,11c6.8,2.53,14.88-11.06,16.5-2Z"/>
  <path class="st60" d="M448,138c-8.33,27.88-6.69,56.57,7,82.5-21.93,7.03-24.46-15.43-27-31.5,18.1,22.54,14.36-28.71,7.5-31l-9.5,5c.3-7.07,1.39-14.14,3-21,9.51,10.22,10.42-.17,19-4Z"/>
  <path class="st81" d="M423,142c-1.49,7.67-3.85,14.99-4,23-3.71,2.68-3.64-2.42-7.5-2-5.11.55-4.75,7.19-8.5,9-.08-4.29.36-9.76,1-14,12.32,4.19,10.61-13.92,19-16Z"/>
  <path class="st29" d="M552,146c-.62,15.21-2.98,25.53-1,42l-3,1c-1.38-7.84-7.49-15.22-7-24.5.17-3.24,5.49-20.3,11-18.5Z"/>
  <path class="st111" d="M599,151l-.5,2c-18.99-7.53-23.83,27.7-10.5,33-3.18,5.76-1.86,23.38-10.5,25-8.16,1.53-12.91-13.12-14-13l-2.5,5c-2.6-8.28-3.37-15.39-4-24,6.38-1.75,6.19,13.97,12.5,17,15.28,7.34,10.47-23.12,4.5-29,.63-1.76,1.33-9.12,1-11,10.2-16.81,9.73-5.69,24-5Z"/>
  <path class="st74" d="M852,147c.16,2.33-8.09,2.9-9.5,3-35.94,2.53-68.96,3.94-102,6-46.58,2.91-100.1,1.79-145.5,7-1.3.15-2.69-.1-4,0,1.57-1.53,1.39-2.28,5.5-3,33.46-5.89,90.86-5.95,127-8,41.25-2.34,87.53-6.02,128.5-5Z"/>
  <path class="st54" d="M873,148c-29.25,14.32-63.25,18.02-95.5,20-44.24,2.72-136.01,7.21-177-1-1.75-.35-5.98-1.21-5.5-4,45.4-5.21,98.92-4.09,145.5-7,33.04-2.06,66.06-3.47,102-6,1.41-.1,9.66-.67,9.5-3,6.41.16,14.77.05,21,1Z"/>
  <path class="st5" d="M398.5,148l1,49c-7.7-6.18-14.62.15-16.5-10.5-2.26-12.83,3.61-31.76,15.5-38.5ZM392.5,162c-3.94,3.18-6.78,7.59-5,13,.72-.8,8.67-13.32,5-13ZM389.5,182c-9.74,3.49,1.34,6.43,5,8,2.24-4.11-.41-9.65-5-8Z"/>
  <path class="st109" d="M890,160c-10.48,12.87-22.76,14.2-38.5,16-56.03,6.41-116.98-1.05-173.5,4-29.8-1.23-59.71-2.39-89.5-3-.96-5.11-1.41-10.19,2.5-14,1.31-.1,2.7.15,4,0-.48,2.79,3.75,3.65,5.5,4,40.99,8.21,132.76,3.72,177,1,32.25-1.98,66.25-5.68,95.5-20,9.37,1.42,14.91,1.44,17,12Z"/>
  <path class="st23" d="M575,156c.33,1.88-.37,9.24-1,11-3.45,9.58-16.15,7.79-17-3,.14-2.88-.37-6.28,0-9,5.54.05,6.01-8.57,13.5-6,1.2.39,4.32,5.98,4.5,7ZM565.5,155c-.25.07-1.99,1.5-1,2l4.5-.5c-.94-1.2-1.89-1.92-3.5-1.5Z"/>
  <path class="st61" d="M451,181c-1.44-4.84-1.09-10.95-1-16,2.82.16,3.78-2.3,5-4,4.01,2.28,9.51-.91,5-5,21.52-5.44,1.49,60.28-9,25Z"/>
  <path class="st82" d="M492.5,155c9.83-1.78,18.62,32.59,1,32-9.15-3-7.51-30.82-1-32Z"/>
  <path class="st90" d="M565.5,155c1.61-.42,2.56.3,3.5,1.5l-4.5.5c-.99-.5.75-1.93,1-2Z"/>
  <path class="st69" d="M460,156c4.51,4.09-.99,7.28-5,5,2.28-3.18-1.15-3.44,5-5Z"/>
  <path class="st80" d="M428,189c-1.5-9.45-2.41-16.24-2-26l9.5-5c6.86,2.29,10.6,53.54-7.5,31Z"/>
  <path class="st33" d="M527.5,158c11.7-3.6,11.99,25.76,2,27-10.3,1.28-9.54-24.68-2-27Z"/>
  <path class="st103" d="M890,160c3.29,16.62-7.62,19.96-21.5,22-54.17,7.95-134.24.32-190.5-2,56.52-5.05,117.47,2.41,173.5-4,15.74-1.8,28.02-3.13,38.5-16Z"/>
  <path class="st68" d="M392.5,162c3.67-.32-4.28,12.2-5,13-1.78-5.41,1.06-9.82,5-13Z"/>
  <path class="st80" d="M419,165c-.11,5.82,1.14,18,2,24-8.17,12.24-10.71,4.82-16-4-.86-4.33-1.92-8.54-2-13,3.75-1.81,3.39-8.45,8.5-9,3.86-.42,3.79,4.68,7.5,2Z"/>
  <path class="st24" d="M574,167c5.97,5.88,10.78,36.34-4.5,29-6.31-3.03-6.12-18.75-12.5-17-.45-6.17-.3-8.95,0-15,.85,10.79,13.55,12.58,17,3Z"/>
  <path class="st2" d="M389.5,182c4.59-1.65,7.24,3.89,5,8-3.66-1.57-14.74-4.51-5-8Z"/>
  <path class="st13" d="M548,190c4.5,3.69,2.81,23.18,0,26.5-6.64,7.85-10.87,2.02-16.5-1.5-2.54-1.59-1.92-3.46-4.5,0-3.66-7.12-6.83-22.82-8-31,5.33.81,6.3,12.13,10,16.5,10.44,12.33,21.02,4.49,19-10.5Z"/>
  <path class="st66" d="M421,189c.46,3.19,7.77,27.32,6.5,28-14.93-6.97-19.39-16.48-22.5-32,5.29,8.82,7.83,16.24,16,4Z"/>
  <path class="st51" d="M561,203l2.5-5c1.09-.12,5.84,14.53,14,13,8.64-1.62,7.32-19.24,10.5-25,5.33,2.12,6.74,1.55,12.5,1,.26,7.29-9.13,22.93-16,26-15.66,7.01-19.38,3.12-23.5-10Z"/>
  <path class="st12" d="M527,215c2.58-3.46,1.96-1.59,4.5,0,5.63,3.52,9.86,9.35,16.5,1.5,2.81-3.32,4.5-22.81,0-26.5-.04-.33.06-.68,0-1l3-1c1.22,10.17,3.91,20.02,8,29.5-11.64,6.97-24.57,11.95-32-2.5Z"/>
  <path class="st35" d="M484,217l-6,5c-2.71-.24-14.77-.72-15.5-1-1.78-.68-6.7-14.4-7.5-17,17.89,15.26,20.88,4.59,22-14,1.42,9.33,4.18,18.07,7,27Z"/>
  <path class="st98" d="M486,201c5.09,1.24,7.73,11,12.5,13,17.8,7.47,11.25-12.76,15.5-22,1.72,9.49,3.58,18.82,8,27.5-26.32,13.94-29.68,6.07-36-18.5Z"/>
  <path class="st11" d="M487,235c-37.07,6.79-66.63,1.02-95.5-23-1.68,1.16-1.77,2.63-1.5,4.5.84,5.75,25.92,21.88,30,29,8.27,14.44,2.03,37.56,1,53.5-.53,8.21-3.08,25.36,8.5,28,16.92,3.86,16.75-17.61,17.5-28,.84-11.64-1.99-24.7,4-35.5,8.95-16.15,37.66-14.96,53.5-15.5,1.83-.06,4.93,1.01,4.5-2,8.42.22,18.08,3.88,15-10,.26-.12,1.89-3.54,4-4,1.34.21,10.75,3.64,11,4.5-3.74,5.85-1.81,8.05-9.5,11.5-20.68,9.28-55.1-3.97-70.5,14.5-14.06,16.86,6.93,62.24-23.5,66.5-35.71,5-11.8-49.15-16.5-68.5-5.48-22.56-46.15-32.14-31.5-57.5,3.91-1.15,21.15,15.17,26,18,20.14,11.75,50.41,12.25,73.5,14Z"/>
  <path class="st34" d="M487,235c7.02.53,14.41,1.89,21.5,1,7.84-.99,9.84-5.53,19.5-4-2.11.46-3.74,3.88-4,4-14.38,6.69-27.2,2.92-41,4-28.37,2.23-59.31,1.84-40.5,41,1.2-.26,1.5-15.67,2.5-18.5,4.66-13.22,25.99-16.79,38-17.5,8.79-.52,17.33.77,26,1,.43,3.01-2.67,1.94-4.5,2-15.84.54-44.55-.65-53.5,15.5-5.99,10.8-3.16,23.86-4,35.5-.64-.07-1.9.12-2,0-1.34-1.54-2.89-2.82-3-3-2.22-3.79-1.88-13.46-9.5-14-6.8-.48-7.4,4.69-8.5,9-.79,3.08-.64,6.17-2,9-.18-.51.05-1.14-1-1,1.03-15.94,7.27-39.06-1-53.5-4.08-7.12-29.16-23.25-30-29-.27-1.87-.18-3.34,1.5-4.5,28.87,24.02,58.43,29.79,95.5,23Z"/>
  <path class="st91" d="M478,222l6-5c.2.62,3.96,6.34,2.5,7-2.78-.87-5.58-1.74-8.5-2Z"/>
  <path class="st75" d="M575,226c-15.68,6.22-22.49,18.86-21,35.5.26,2.92,2.7,7.49,3,10.5,1.08,10.92,5.9,53.8-18,42-8.02-10.38-10.83-22.69-10-36,8.63,26,38.05,11.32,21-10.5-5.53-7.08-7.41-6.98-16-5.5,1.63-3.13,3.27-5.96,5-9,10.17-6.33,10.32-18.54,17.5-24,3.15-2.4,17.72-9.65,18.5-3Z"/>
  <path class="st36" d="M575,226c.68,5.73-14.16,20.38-16,26.5-1.26,4.17.4,14.94-2,19.5-.3-3.01-2.74-7.58-3-10.5-1.49-16.64,5.32-29.28,21-35.5Z"/>
  <path class="st101" d="M759,259c-28.74,4.62-58.95,10.79-88,13-33.51,2.55-67.45,1.24-101,1,.3-.77-.54-2.31.5-3,5.91-3.26,66.51-2.79,66.5-8.5l-69-14.5c1.6-1.64,15.46-13.7,16.5-14,6.99-2.04,46.96.35,57,1,26.72,1.73,98.08,8.55,117.5,25Z"/>
  <path class="st42" d="M411,274l-121.5-11c-11.94,23.2-14.16,54.8-4.5,79-3.06-.67-8.84,1.46-11-1.5-4.43-18.6-17.15-61.95-6-78,14.71-21.17,88.72-25.69,113.5-28.5,13.92,12.7,28.67,18.79,29.5,40Z"/>
  <path class="st102" d="M524,236c3.08,13.88-6.58,10.22-15,10-8.67-.23-17.21-1.52-26-1v-5c13.8-1.08,26.62,2.69,41-4Z"/>
  <path class="st22" d="M483,245c-12.01.71-33.34,4.28-38,17.5-1,2.83-1.3,18.24-2.5,18.5-18.81-39.16,12.13-38.77,40.5-41v5Z"/>
  <path class="st96" d="M570,273c-3.31,8.37-.5,23.41-6,35.5-.83,1.82-2.92,1.35-3,1.5,5.18-22.37-10.25-45.39,7-63l69,14.5c0,5.71-60.59,5.24-66.5,8.5-1.04.69-.2,2.23-.5,3Z"/>
  <path class="st95" d="M534,262c-3.47,6.66-4.52,8.31-5,16-.83,13.31,1.98,25.62,10,36-8.74-4.32-9.64-12.7-11-21-1.89-11.58.28-25.3-5-35,5.1-.83,11.63-2.28,16-5-1.73,3.04-3.37,5.87-5,9Z"/>
  <path class="st110" d="M523,258c5.28,9.7,3.11,23.42,5,35-2.96-.45-2,2.7-2,4.5.02,8.99.85,21.49,10,25.5-.27-.06-1.78,1.93-5.5,0-16.96-8.82-13.17-35.7-15.5-50-.36-2.2,1.03-5.51-1.5-7l-39.5-2c14.87-6.39,33.65-3.51,49-6Z"/>
  <path class="st46" d="M614,362l20.5-5c41.1,5.88,37.95-57.98,36.5-85,29.05-2.21,59.26-8.38,88-13,9.65,8.17,9.24,14.36,9,26.5-.16,8.02-6.85,51.55-12.5,55.5-46.51,10.83-93.87,17.17-141.5,21Z"/>
  <path class="st58" d="M529,278c.48-7.69,1.53-9.34,5-16,8.59-1.48,10.47-1.58,16,5.5,17.05,21.82-12.37,36.5-21,10.5ZM536.5,269c-2.84.82-3.46,6.16,1,6,4.36-.16,4.98-7.72-1-6Z"/>
  <path class="st9" d="M411,274c.84,21.62-18.61,72.28,27.5,64,31.85-5.72,16.44-47.94,25.5-65h51c2.33,14.3-1.46,41.18,15.5,50,3.72,1.93,5.23-.06,5.5,0,17.6,3.65,17.35.99,25-13,.08-.15,2.17.32,3-1.5,5.5-12.09,2.69-27.13,6-35.5,33.55.24,67.49,1.55,101-1,1.45,27.02,4.6,90.88-36.5,85l-20.5,5c-.33.03-.67-.03-1,0-.83-.77-5.68-1.92-6.5-2-38.63-3.56-87.96,1.88-129,0-56.6-2.59-116.74-14.08-172-16-1.62-.06-3.64.47-4.5,2-5.34-1.19-10.67-2.83-16-4-9.66-24.2-7.44-55.8,4.5-79l121.5,11Z"/>
  <path class="st55" d="M474,264l39.5,2c2.53,1.49,1.14,4.8,1.5,7h-51c2.95-5.55,4.58-6.67,10-9Z"/>
  <path class="st47" d="M536.5,269c5.98-1.72,5.36,5.84,1,6-4.46.16-3.84-5.18-1-6Z"/>
  <path class="st3" d="M442,296c-5.01,12.54-17.99,3.29-13-7.5l-5,2.5c1.1-4.31,1.7-9.48,8.5-9,7.62.54,7.28,10.21,9.5,14Z"/>
  <path class="st16" d="M442,296c.11.18,1.66,1.46,3,3-5.77,16.4-16.68,18.48-23,1,1.36-2.83,1.21-5.92,2-9l5-2.5c-4.99,10.79,7.99,20.04,13,7.5Z"/>
  <path class="st84" d="M422,300c6.32,17.48,17.23,15.4,23-1,.1.12,1.36-.07,2,0-.75,10.39-.58,31.86-17.5,28-11.58-2.64-9.03-19.79-8.5-28,1.05-.14.82.49,1,1Z"/>
  <path class="st17" d="M613,362c-100.75,7.97-213.18,5.97-312-16,.86-1.53,2.88-2.06,4.5-2,55.26,1.92,115.4,13.41,172,16,41.04,1.88,90.37-3.56,129,0,.82.08,5.67,1.23,6.5,2Z"/>
  <path class="st53" d="M767,366c-.81-.43-2.32-1.98-2.5-2-9.84-.92-40.71,15.05-52.5,17-8.02-5.79-17.19-10.3-24.5-17l73-13c6.43,2.47,4.07,9.4,6.5,15Z"/>
  <path class="st79" d="M320,379l-52-16c.26-5.01-2.37-5.58-5.5-9l1-2c26.98-1.33,52.17,9.57,79,12-6.35,6.48-15.33,9.76-22.5,15Z"/>
  <path class="st26" d="M320,379c-2.53,1.85-5.56,4.06-8,6-2.38-1.12-6.51-2.57-9-3-6.06-1.05-10.66-1.11-17-3-9.27-2.77-14.13-5.1-22-11,2.33-1.39,3.8-1.09,4-5l52,16Z"/>
  <path class="st70" d="M767,366c1.21.64,2.37,3.66,3,4-9.22,8.3-22.23,10.26-34,13-4.85,1.13-10.91,1.52-15,4-2.49-1.96-6.26-4.02-9-6,11.79-1.95,42.66-17.92,52.5-17,.18.02,1.69,1.57,2.5,2Z"/>
  <path class="st31" d="M387,370c-3.95-.14-17.7,14.37-13.5,16l68.5,12c-3.42,5.69-5.39,11.96-8,18-7.37,17.05-15.05,35.54-11,55-10.22,1.53-44.15-19.99-56.5-25-10.4-4.21-29.79-11.03-40.5-13l45-46.5-34-5.5c4.31-2.74,18.61-13.38,22.5-14,5.45-.88,20.59,2.51,27.5,3Z"/>
  <path class="st8" d="M696,383l-33,2.5c18.88,11.82,35.81,29.76,46,49.5-34.44,4.79-57.76,26.79-82.5,32-7.53,1.59-8.8-.45-15.5-3,3.09-14.85.55-32.64-10-44-1.73-6.14-4.79-12.57-8-18,20.97-10.01,44.25-15.46,67.5-16,6.09-2.43-13.06-12.85-14.5-16,6.7-.47,18.3-4.09,24.5-3,2.45.43,21.71,13.57,25.5,16Z"/>
  <path class="st50" d="M286,379l-75,56c-13.96-6.63-24.75-12.4-41-12.5,30.19-13.06,55.8-33.54,83.5-50.5,3.1-1.9,7.45-2.18,10.5-4,7.87,5.9,12.73,8.23,22,11Z"/>
  <path class="st7" d="M459,375c-4.45,7.99-12.36,15.29-17,23l-68.5-12c-4.2-1.63,9.55-16.14,13.5-16,23.94,1.68,48.02,3.96,72,5Z"/>
  <path class="st93" d="M646,370c1.44,3.15,20.59,13.57,14.5,16-23.25.54-46.53,5.99-67.5,16-5.43-9.2-13.13-17.38-18-27,23.66-1.12,47.37-3.35,71-5Z"/>
  <path class="st44" d="M780,459c-.58-30.8-24.17-54.82-44-76,11.77-2.74,24.78-4.7,34-13,32.42,17.76,63.23,38.3,96,55.5-33.51-.66-58.18,18.73-86,33.5Z"/>
  <path class="st40" d="M486,376l-7,18c-.45.29-7.67,6.58-8,7-6.58-3.37,5.62-22.41,5-23.5l-2.5-.5-39,47-.5-8c2.61-6.04,4.58-12.31,8-18,4.64-7.71,12.55-15.01,17-23,9.03.39,17.94.78,27,1Z"/>
  <path class="st97" d="M575,375c4.87,9.62,12.57,17.8,18,27,3.21,5.43,6.27,11.86,8,18-.41-.44-1.44,1.07-1.5,1-12.4-13.83-22.53-29.05-35-43-.89,5.73,3.93,12.61,4.5,18.5.25,2.6,1.32,10.8-3,10.5-.91-1.14-1.97-3.06-3-4l-10-27c7.36-.23,14.66-.65,22-1Z"/>
  <path class="st86" d="M553,376l10,27c-18.02-16.31-63-22.45-84-9l7-18c22.35.55,44.65.69,67,0Z"/>
  <path class="st112" d="M471,401c-5.59,7.22-9.89,24.98-13,34-4.86,3.04-15.03,12.1-19,16.5-4.54,5.03-9.67,18.55-16,19.5-4.05-19.46,3.63-37.95,11-55l.5,8,39-47,2.5.5c.62,1.09-11.58,20.13-5,23.5Z"/>
  <path class="st99" d="M601,420c10.55,11.36,13.09,29.15,10,44-18.94-7.21-19.55-19.35-33-29-1.76-8-6.95-21.65-12-28,4.32.3,3.25-7.9,3-10.5-.57-5.89-5.39-12.77-4.5-18.5,12.47,13.95,22.6,29.17,35,43,.06.07,1.09-1.44,1.5-1Z"/>
  <path class="st44" d="M303,382c-21.17,23.04-43.14,45.61-48,78-14.49-6.08-28.96-17.85-44-25l75-56c6.34,1.89,10.94,1.95,17,3Z"/>
  <path class="st85" d="M326,433c-15.52-2.85-34.84-4.48-46.5,8,7.83-24.94,35.48-46,57.5-60l34,5.5-45,46.5Z"/>
  <path class="st77" d="M312,385c-24.52,19.48-45.83,44.3-50,76.5l-2.5,1.5c-.56.03-3.85-2.73-4.5-3,4.86-32.39,26.83-54.96,48-78,2.49.43,6.62,1.88,9,3Z"/>
  <path class="st19" d="M709,435c-10.19-19.74-27.12-37.68-46-49.5l33-2.5c21.3,13.67,41.9,29.72,54,52.5-.52,3.2-10.62-2.29-13.5-2.5-7.29-.53-20.01.96-27.5,2Z"/>
  <path class="st30" d="M780,459c-2.57,1.36-10.34,8.94-13,4.5-1.48-2.47-4.09-23.71-6-29-6.05-16.8-25.99-36.44-40-47.5,4.09-2.48,10.15-2.87,15-4,19.83,21.18,43.42,45.2,44,76Z"/>
  <path class="st8" d="M563,403c1.03.94,2.09,2.86,3,4,5.05,6.35,10.24,20,12,28-27.71-19.88-91.29-17.98-120,0,3.11-9.02,7.41-26.78,13-34,.33-.42,7.55-6.71,8-7,21-13.45,65.98-7.31,84,9Z"/>
  <path class="st64" d="M621,487c-8.19,2.44-16.79.6-25,0-6.34-4.09-13.57-7.24-19.5-12-3.38-2.71-15.83-17.6-17-18-2.88-.99-58.12-1.02-61,0-1.13.4-13.33,14.21-17,17-7.59,5.76-19.31,14.86-27.5,19-33.91,17.13-40.58,5.69-71-6-8.17-3.14-40.75-17.63-47.5-16-.64.15-6.76,6.98-8.5,8-23.27,13.58-47.71,19.09-73,12l10-16c27.82,4.08,37.75-32.44,52.5-33,35.05-1.32,83.88,44,116,40,32.62-4.06,50.47-47.48,76-51,13.09-1.81,49.57,3.94,61,11,8.59,5.31,16.15,19.02,25,26,9.67,7.63,16.07,8.86,26.5,19Z"/>
  <path class="st56" d="M164.5,433c11.48-2.54,39.96,6.6,47.5,16.5-18.04-2.39-37.09-1.38-51-15,1.22-.05,3.16-1.42,3.5-1.5Z"/>
  <path class="st87" d="M847.5,436c3.34-.43,22.69-.92,22,2-14.62,10.6-36.67,12.86-54.5,11.5,10.32-4.56,21.1-12.05,32.5-13.5Z"/>
  <path class="st88" d="M476.5,437l-7.5,11.5c-9.41,9.4-18.62,20.12-32,24,9.77-15.9,22.34-27.71,39.5-35.5Z"/>
  <path class="st10" d="M294.5,442c.89-.05,2.09-.28,2.5.5l-16.5,17.5c-.99-7.02,7.34-17.64,14-18Z"/>
  <path class="st32" d="M769,477c3.81,4.52,7.36,9.72,10,15,45.93,91.98,15.69,282.17-77.5,338-28.33,16.97-68.24,25.32-101,27,85.98-29.54,143.33-114.47,159.5-201.5,5.82-31.31,4.89-137.96-14-163-3.74-4.96-21.61-4.31-28-7.5,4.79-3.91,8.49-5.85,14-8.5-.82-1.36-18.59-.51-22-.5-1.33,0-2.68-.03-4,0-8.5.19-18.11-.25-26.5,1-14.96,2.22-33.05,15.31-45.5,6-1.53-2.01-3.12-3.8-5-5.5,20.56-8.72,71.96-38.98,93.5-32.5,2.22.67,21.5,26.1,29,30,6.82,3.54,9.89,3.69,17.5,2Z"/>
  <path class="st20" d="M738.5,445c4.22-1.55,12.13,11.19,10,12l-10-12Z"/>
  <path class="st21" d="M596,487c-1.94-.14-2.19,1.05-3,1-8-.45-12.14-4.05-21.5-3-4.91.55-12.11,5.34-16.5,6-33.04,4.96-67.7,2.99-101,2,8.19-4.14,19.91-13.24,27.5-19,3.67-2.79,15.87-16.6,17-17,2.88-1.02,58.12-.99,61,0,1.17.4,13.62,15.29,17,18,5.93,4.76,13.16,7.91,19.5,12Z"/>
  <path class="st43" d="M805,460c-1.79.18-3.69-.12-5.5,0-.94.83-1.42,1.12-1.5,2.5-.12,1.95,13.09,29.72,15,36,29.41,96.52,14.64,215.85-40,301-3.64,5.67-26.67,32.82-27,35-.39,2.59,10.94,11.31,9,25-5.95,42.02-137.17,61.69-171.5,64.5-59.14,4.84-271.01,3.79-302.5-55.5-10.15-19.11,4.68-29.93,4-34-.17-.98-11.23-12.44-13-15-36.82-53.37-58.49-105.92-66-171-7.63-66.1,1.56-127.49,27-188.5,3.04.6,8.72,5.53,12,7-5.14,8.65-8.85,19.45-12,29-37.2,112.8-10.58,308.69,110,363,57.75,26.01,207.45,34.67,268,19,62.98-4.85,112.05-28.13,148-80.5,59.32-86.42,72.33-213.72,36-311.5-2.26-6.07-4.41-13.19-9-18,5.15-3,11-12.89,19-8ZM740.5,840c-34.26,35.41-86.39,47.11-134,53-86.45,10.7-226.17,11.02-300-39-5.3-3.59-15.24-16.99-18.5-9.5-3.7,8.5,3.59,14.44,9.5,19.5,74.03,63.47,333.69,58.41,417,13,11.26-6.14,41.08-23.26,26-37Z"/>
  <path class="st49" d="M264,475l-10,16c-.31-.09-.69.09-1,0-12.67-3.7-10.76-7.97-20,5,3.15-9.55,6.86-20.35,12-29,6.98,3.13,10.43,6.74,19,8Z"/>
  <path class="st72" d="M795,486l-16,6c-2.64-5.28-6.19-10.48-10-15,5.93-1.32,11.86-6,17-9,4.59,4.81,6.74,11.93,9,18Z"/>
  <path class="st100" d="M383,487l-56-8c1.74-1.02,7.86-7.85,8.5-8,6.75-1.63,39.33,12.86,47.5,16Z"/>
  <path class="st63" d="M706,476c-21.46,21.77-21.88,34.15-19,63l-13.5-14c-8.83-1.5-12.59,1.78-19.5,6,1.1-12.93-1-29.98-12-38-2.35-4.02-5.3-6.46-8-10,12.45,9.31,30.54-3.78,45.5-6,8.39-1.25,18-.81,26.5-1Z"/>
  <path class="st6" d="M710,476c-8.42,8.67-19.43,23.18-21,35.5-2.86,22.44,13.11,40.86,8,64-6.47,29.29-48.47,28.49-55,0-7.13-31.13,20.61-47.28,0-82.5,11,8.02,13.1,25.07,12,38-.64,7.46-4.07,14.51-5,22-1.21,9.73-1.98,19.96,4,28.5,10.94,15.63,30.79,8.96,36-8,3.59-11.68.12-17.85-1-28.5-.22-2.1-.79-3.9-1-6-2.88-28.85-2.46-41.23,19-63,1.32-.03,2.67,0,4,0Z"/>
  <path class="st37" d="M383,487c30.42,11.69,37.09,23.13,71,6,33.3.99,67.96,2.96,101-2v1c-27.84,67.37,77.19,43.85,39-2-.24-.29-.87-1.49-1-2,.81.05,1.06-1.14,3-1,8.21.6,16.81,2.44,25,0,38.14,37.08,1.97,50.92,10,90.5,6.88,33.92,51.37,41.44,71,14.5-16.27,93.06-33.6,141.63-135.5,160-67.06,12.09-220.32,11.37-278.5-24,19.84-20.94-20.54-49.18-13-15l-34-24c-14.52-63.99-13.49-137.12,12-198,.31.09.69-.09,1,0,25.29,7.09,49.73,1.58,73-12l56,8ZM345,524l-1.5-11c-5.49,14.08-16.71,20.55-29,9,1.93,11.88,11.28,11.54,21.5,11-12.72,5.08-27.19-3.25-29-17.5-.55-4.36,7.01-31.11-3-18-17.8,23.3,13.04,59.03,40.5,41.5,16.59-10.59,14.78-45.59,2-42-5.03,1.41,1.21,10.28,1.5,13.5.54,6.08-.6,8.34-3,13.5ZM326.5,500c-8.12.37-9.79,14-3,16,11.25,3.31,13.2-16.47,3-16ZM282.5,545c-30.34,2.99-28.63,58.82-5,66,36.93,11.22,43.6-69.8,5-66ZM279.5,625c-30.02,5.2-13.75,64.85,17,47,20.62-11.97,10.89-51.83-17-47Z"/>
  <path class="st59" d="M593,488c.13.51.76,1.71,1,2-9.8-.64-1.43,6.41-1,10.5,1.05,10.06-2.35,23.76-14,25.5l11-11.5-3.5-12.5c.54,17.53-8.01,23.4-24.5,18-2.56-2.91-4.45-4.08-5-8.5-.99-7.87,6.71-19.26-2-19.5v-1c4.39-.66,11.59-5.45,16.5-6,9.36-1.05,13.5,2.55,21.5,3ZM572.5,501c-5.59.77-8.41,10.05-2,12,11.17,3.41,13.12-13.54,2-12Z"/>
  <path class="st107" d="M779,492l16-6c36.33,97.78,23.32,225.08-36,311.5-35.95,52.37-85.02,75.65-148,80.5,4.19-1.08,8.34-3.95,13.5-4,1.38-1.54-2.06-4.25-3-5-24.19-19.33-128.84-6.88-164-8-47.09-1.5-93.96-11.94-135.5-34-40.77-49.98-65.5-69.7-81-138l34,24c.72,3.27,5.85,13.37,8.5,15,.68.42,3.82-.41,4.5,0,58.18,35.37,211.44,36.09,278.5,24,101.9-18.37,119.23-66.94,135.5-160,.91-5.18,6.27-13.44,7-20.5,3.37-32.59-26.46-57.54,9-86.5,6.39,3.19,24.26,2.54,28,7.5,18.89,25.04,19.82,131.69,14,163-16.17,87.03-73.52,171.96-159.5,201.5,32.76-1.68,72.67-10.03,101-27,93.19-55.83,123.43-246.02,77.5-338Z"/>
  <path class="st94" d="M253,491c-25.49,60.88-26.52,134.01-12,198,15.5,68.3,40.23,88.02,81,138,7.53,9.23,15.21,21.5,21,32-120.58-54.31-147.2-250.2-110-363,9.24-12.97,7.33-8.7,20-5Z"/>
  <path class="st38" d="M594,490c38.19,45.85-66.84,69.37-39,2,8.71.24,1.01,11.63,2,19.5.55,4.42,2.44,5.59,5,8.5,4.8,5.45,9.45,7.13,17,6,11.65-1.74,15.05-15.44,14-25.5-.43-4.09-8.8-11.14,1-10.5Z"/>
  <path class="st106" d="M336,533c5.76-2.3,6.45-3.52,9-9,2.4-5.16,3.54-7.42,3-13.5-.29-3.22-6.53-12.09-1.5-13.5,12.78-3.59,14.59,31.41-2,42-27.46,17.53-58.3-18.2-40.5-41.5,10.01-13.11,2.45,13.64,3,18,1.81,14.25,16.28,22.58,29,17.5Z"/>
  <path class="st18" d="M326.5,500c10.2-.47,8.25,19.31-3,16-6.79-2-5.12-15.63,3-16Z"/>
  <path class="st92" d="M572.5,501c11.12-1.54,9.17,15.41-2,12-6.41-1.95-3.59-11.23,2-12Z"/>
  <path class="st83" d="M579,526c-7.55,1.13-12.2-.55-17-6,16.49,5.4,25.04-.47,24.5-18l3.5,12.5-11,11.5Z"/>
  <path class="st0" d="M345,524c-2.55,5.48-3.24,6.7-9,9-10.22.54-19.57.88-21.5-11,12.29,11.55,23.51,5.08,29-9l1.5,11Z"/>
  <path class="st48" d="M687,539c.21,2.1.78,3.9,1,6-1.79,27.83-27.21,33.86-39,8,.93-7.49,4.36-14.54,5-22,6.91-4.22,10.67-7.5,19.5-6l13.5,14ZM664.5,533c-2.28.3-8,5.98-8.5,8.5-2.77,13.88,14.01,13.19,16,3,1.07-5.45-.23-12.46-7.5-11.5Z"/>
  <path class="st89" d="M664.5,533c7.27-.96,8.57,6.05,7.5,11.5-1.99,10.19-18.77,10.88-16-3,.5-2.52,6.22-8.2,8.5-8.5Z"/>
  <path class="st57" d="M282.5,545c38.6-3.8,31.93,77.22-5,66-23.63-7.18-25.34-63.01,5-66Z"/>
  <path class="st73" d="M649,553c11.79,25.86,37.21,19.83,39-8,1.12,10.65,4.59,16.82,1,28.5-5.21,16.96-25.06,23.63-36,8-5.98-8.54-5.21-18.77-4-28.5ZM663.5,573c-1.22.95-1.24,4.68,2,4,3.25-.68.11-5.65-2-4Z"/>
  <path class="st4" d="M663.5,573c2.11-1.65,5.25,3.32,2,4-3.24.68-3.22-3.05-2-4Z"/>
  <path class="st57" d="M279.5,625c27.89-4.83,37.62,35.03,17,47-30.75,17.85-47.02-41.8-17-47Z"/>
  <path class="st71" d="M288,728c-.68-.41-3.82.42-4.5,0-2.65-1.63-7.78-11.73-8.5-15-7.54-34.18,32.84-5.94,13,15Z"/>
  <path class="st28" d="M611,878c-60.55,15.67-210.25,7.01-268-19-5.79-10.5-13.47-22.77-21-32,41.54,22.06,88.41,32.5,135.5,34,35.16,1.12,139.81-11.33,164,8,.94.75,4.38,3.46,3,5-5.16.05-9.31,2.92-13.5,4Z"/>
  <path class="st108" d="M740.5,840c15.08,13.74-14.74,30.86-26,37-83.31,45.41-342.97,50.47-417-13-5.91-5.06-13.2-11-9.5-19.5,3.26-7.49,13.2,5.91,18.5,9.5,73.83,50.02,213.55,49.7,300,39,47.61-5.89,99.74-17.59,134-53Z"/>
</svg>